<svg version="1.1" id="Layer_1" xmlns="http://www.w3.org/2000/svg" xmlns:xlink="http://www.w3.org/1999/xlink" x="0px" y="0px"
	 width="100%" viewBox="0 0 986 986" enable-background="new 0 0 986 986" xml:space="preserve">
<path fill="#000000" opacity="1.000000" stroke="none" 
	d="
M620.000000,987.000000 
	C413.333344,987.000000 207.166672,987.000000 1.000000,987.000000 
	C1.000000,658.333313 1.000000,329.666656 1.000000,1.000000 
	C329.666656,1.000000 658.333313,1.000000 987.000000,1.000000 
	C987.000000,329.666656 987.000000,658.333313 987.000000,987.000000 
	C864.833313,987.000000 742.666687,987.000000 620.000000,987.000000 
M690.015747,415.983978 
	C690.015747,415.983978 690.055237,415.923920 689.841492,415.276337 
	C688.876404,414.879120 687.911316,414.481903 686.192444,413.964569 
	C681.209045,411.978729 676.299377,409.770752 671.216858,408.083435 
	C667.702576,406.916687 663.950562,406.463715 660.302856,405.701111 
	C654.327087,404.451843 648.383301,402.376740 642.366272,402.134766 
	C628.891174,401.592834 615.373291,401.734558 601.885498,402.085052 
	C596.933716,402.213715 591.932190,403.395721 587.107849,404.678192 
	C581.662354,406.125702 576.321045,408.048676 571.064453,410.098297 
	C566.448425,411.898102 562.012085,414.158630 556.884338,416.153900 
	C555.856567,416.711884 554.828735,417.269867 553.908752,417.870422 
	C553.908752,417.870422 553.949524,417.761932 553.168884,417.675110 
	C548.493958,421.106445 543.819092,424.537781 538.832520,428.596863 
	C532.481995,434.924835 525.659729,440.855164 519.903503,447.684082 
	C513.112061,455.741119 506.782043,464.283417 501.141388,473.179291 
	C497.584534,478.788757 495.626221,485.418274 493.006836,491.613861 
	C490.375519,497.837555 487.262573,503.928741 485.369202,510.374268 
	C483.284607,517.470764 481.942963,524.852600 480.997925,532.202759 
	C479.077057,547.142578 476.776764,562.116455 476.284607,577.130432 
	C475.906799,588.654236 477.791626,600.293640 479.190430,611.818481 
	C480.005646,618.535156 481.378815,625.269897 483.353271,631.736267 
	C485.369171,638.338257 488.657898,644.539978 490.982361,651.061890 
	C495.836761,664.682373 502.725342,677.083130 512.046448,688.757202 
	C513.687256,690.538574 515.328064,692.319946 516.985962,694.019592 
	C516.985962,694.019592 516.904114,694.002869 517.035339,694.700745 
	C517.692810,695.165222 518.350281,695.629761 519.007507,695.996643 
	C519.007507,695.996643 518.909851,695.996399 519.046753,696.695862 
	C525.368530,706.221252 534.205261,713.249817 543.216370,719.864929 
	C549.569031,724.528442 556.883362,727.881958 564.522949,731.981873 
	C579.754517,740.166138 596.173950,743.322693 613.275269,742.939514 
	C626.195129,742.650024 639.270203,744.710754 652.819702,740.966248 
	C654.582336,740.328125 656.344910,739.690063 658.567017,738.954407 
	C658.567017,738.954407 659.008057,738.792664 659.734741,738.964844 
	C660.842102,738.647156 661.949402,738.329529 663.699707,737.970520 
	C664.440125,737.586975 665.180542,737.203430 666.745544,736.991028 
	C668.226746,736.359314 669.680115,735.649719 671.193604,735.107971 
	C685.122131,730.121399 695.972900,721.215637 704.345276,708.825073 
	C704.968811,709.689087 705.709412,710.275757 705.854797,710.984436 
	C707.348328,718.266541 711.442993,723.864807 716.504944,729.152954 
	C721.951111,734.842407 728.411865,738.552429 735.988647,739.334778 
	C744.637207,740.227844 753.411499,739.903442 762.754883,740.006592 
	C763.170532,739.945374 763.586182,739.884155 764.745239,739.701843 
	C773.136780,737.794067 779.984314,733.015930 785.577759,726.900146 
	C793.650269,718.073608 797.457031,707.329346 797.697205,694.948792 
	C798.114014,693.242310 798.530884,691.535828 799.080750,688.928528 
	C799.051025,669.666504 799.021301,650.404419 799.087585,630.191467 
	C799.055603,619.746887 799.023560,609.302246 799.084473,597.943604 
	C799.053589,567.676819 799.022705,537.410095 799.087585,506.192230 
	C799.055664,457.413727 799.023682,408.635223 799.084473,358.942688 
	C799.087341,343.407837 799.116394,327.872894 799.051819,312.338348 
	C799.045593,310.826569 798.461731,309.317200 798.049988,307.876862 
	C798.049988,307.876862 798.120422,307.972717 798.059509,307.080994 
	C797.693176,304.311340 797.326843,301.541687 796.976807,297.922211 
	C796.897766,296.511414 796.818787,295.100616 796.885925,292.919037 
	C795.632568,283.956543 791.707275,276.264771 785.431702,269.851776 
	C779.557068,263.848633 772.217041,260.474243 764.015320,258.975586 
	C764.015320,258.975586 764.083374,258.967865 763.713257,258.286743 
	C762.447144,258.204559 761.181030,258.122375 760.060242,258.058960 
	C760.060242,258.058960 760.080078,257.913788 759.717651,257.100739 
	C754.959900,257.046753 750.199585,256.885437 745.445862,256.998962 
	C743.853943,257.036987 742.278748,257.776245 739.905579,258.077148 
	C734.801086,259.666809 729.239258,260.442719 724.681152,263.004547 
	C712.819458,269.671173 706.079773,279.941437 705.009521,293.998871 
	C704.680359,295.650970 704.066223,297.302612 704.063782,298.955200 
	C704.008850,336.697021 704.030823,374.438934 704.003845,412.180847 
	C704.001221,415.821960 703.772461,419.462982 703.430725,423.018219 
	C703.430725,423.018219 703.240173,423.154358 702.508423,422.945862 
	C701.653198,422.475006 700.797913,422.004150 699.585449,420.976929 
	C697.746155,420.283447 695.906860,419.589935 693.813477,418.351410 
	C692.897827,417.639832 691.982178,416.928284 690.581726,416.029022 
	C690.411194,415.998260 690.240662,415.967499 690.015747,415.983978 
M445.831421,501.948761 
	C445.819641,476.648956 445.807861,451.349182 445.987976,425.201691 
	C446.003601,415.207642 446.033081,405.213623 446.032257,395.219574 
	C446.029877,365.749939 445.953247,336.280090 446.042023,306.810760 
	C446.070343,297.414673 445.505585,288.337311 440.600586,279.856110 
	C434.079010,268.579773 424.181458,262.293365 411.818207,260.043091 
	C405.366394,258.868774 398.608887,259.009308 392.000061,259.131287 
	C373.141266,259.479279 357.422028,271.345886 354.270447,292.119385 
	C353.846069,294.156586 353.052307,296.193512 353.050598,298.231049 
	C352.982819,378.479401 352.970367,458.727814 352.992065,538.976196 
	C352.998596,563.096680 353.126373,587.217102 353.037018,612.025635 
	C353.595551,615.616882 355.545990,619.719482 354.449921,622.702881 
	C351.246338,631.422668 348.442474,640.580322 341.214935,647.224915 
	C338.491730,649.728455 335.865875,652.337830 332.385925,655.057373 
	C328.396454,656.388733 324.454071,657.898315 320.396149,658.970520 
	C318.573883,659.452087 316.414581,659.450806 314.599823,658.960083 
	C312.501190,658.392639 310.707886,656.731628 308.614685,656.100830 
	C304.270569,654.791748 299.671539,654.235840 295.444397,652.655823 
	C290.490814,650.804321 285.956177,647.828064 280.997528,645.995239 
	C273.270599,643.139160 265.339508,640.835449 257.803162,638.397461 
	C257.230499,637.789734 256.631744,636.675171 255.727997,636.304565 
	C254.274353,635.708679 252.619263,635.604004 250.350525,634.817993 
	C237.116104,630.550354 215.354706,640.501099 215.771057,651.158630 
	C218.325439,648.988403 220.639709,647.022217 223.393982,645.603455 
	C227.596420,645.254883 227.872849,648.581238 228.891800,651.304077 
	C221.989670,653.068176 218.996002,658.914978 215.691315,664.044128 
	C211.986008,669.795227 215.284409,676.434509 214.988831,682.238831 
	C213.014603,682.860168 211.494370,683.338562 209.208344,683.933899 
	C208.524399,684.631897 207.123703,685.559204 207.262772,685.993896 
	C209.818893,693.984314 212.267029,701.896729 218.287033,708.374268 
	C226.177536,716.864380 235.165054,723.089600 245.846512,727.827759 
	C254.125626,731.500305 262.259460,735.311768 271.765137,737.961731 
	C280.346344,739.626404 288.937317,742.722107 297.506744,742.663635 
	C316.473907,742.534119 335.474274,744.689331 354.473907,741.205750 
	C366.488251,739.002930 378.173523,736.550903 388.901337,730.558655 
	C390.275146,729.791260 391.646820,729.019836 394.257599,727.556335 
	C390.832703,727.154602 389.061218,726.946777 386.109558,726.600525 
	C386.788513,723.837463 386.664307,720.765686 388.138824,719.190552 
	C390.286865,716.895996 393.470520,715.434082 396.415588,714.048584 
	C404.723694,710.139893 410.231842,703.086975 415.914642,696.426819 
	C421.561890,689.808350 425.498016,682.027588 428.774323,673.870605 
	C433.811707,661.329224 436.906067,648.316101 437.829865,634.961792 
	C438.630157,623.392578 437.996246,611.724243 437.996246,599.351746 
	C439.090729,605.905823 440.026917,611.646484 441.024261,617.376526 
	C441.237549,618.601990 441.672516,619.788818 442.014008,621.931396 
	C442.014008,629.949890 442.014008,637.968384 442.014008,645.986877 
	C442.704529,646.093018 443.395050,646.199158 444.085571,646.305298 
	C444.751648,644.007202 445.913666,641.725525 445.990265,639.407837 
	C446.215240,632.601746 446.008942,625.781494 446.148987,618.051697 
	C446.036804,582.754883 445.924591,547.458130 445.958496,511.238068 
	C445.880646,508.442383 445.802795,505.646667 445.831421,501.948761 
M417.381714,707.928589 
	C418.559296,707.054565 420.052429,706.406616 420.865631,705.271545 
	C428.944977,693.994019 434.708221,681.572327 438.452698,668.008484 
	C437.364044,668.458740 436.404968,669.125610 435.944672,670.042847 
	C431.089600,679.717529 426.347076,689.448792 421.496826,699.126038 
	C420.000763,702.110962 418.270630,704.978577 417.381714,707.928589 
M397.211487,723.587769 
	C402.970245,724.290894 407.777679,720.691284 408.401825,713.528137 
	C403.984497,717.148804 400.530701,719.979736 397.211487,723.587769 
z"/>
<path fill="#1172BF" opacity="1.000000" stroke="none" 
	d="
M442.005341,620.993469 
	C441.672516,619.788818 441.237549,618.601990 441.024261,617.376526 
	C440.026917,611.646484 439.090729,605.905823 437.996246,599.351746 
	C437.996246,611.724243 438.630157,623.392578 437.829865,634.961792 
	C436.906067,648.316101 433.811707,661.329224 428.774323,673.870605 
	C425.498016,682.027588 421.561890,689.808350 415.914642,696.426819 
	C410.231842,703.086975 404.723694,710.139893 396.415588,714.048584 
	C393.470520,715.434082 390.286865,716.895996 388.138824,719.190552 
	C386.664307,720.765686 386.788513,723.837463 386.109558,726.600525 
	C389.061218,726.946777 390.832703,727.154602 394.257599,727.556335 
	C391.646820,729.019836 390.275146,729.791260 388.901337,730.558655 
	C378.173523,736.550903 366.488251,739.002930 354.473907,741.205750 
	C335.474274,744.689331 316.473907,742.534119 297.506744,742.663635 
	C288.937317,742.722107 280.346344,739.626404 271.466034,737.617493 
	C272.716461,734.595459 271.013885,734.320312 268.918976,733.965149 
	C265.972961,733.465515 262.309998,733.877747 261.977661,729.236511 
	C261.944397,728.772400 260.091217,728.300720 259.031067,728.076050 
	C256.609039,727.562683 254.053787,727.484558 251.753860,726.665039 
	C250.471985,726.208191 248.508041,724.342468 248.701752,723.584656 
	C250.526810,716.445007 245.323502,715.219604 240.650360,713.393555 
	C238.162399,712.421387 235.116287,711.873901 233.417206,710.091003 
	C229.630142,706.117249 226.385345,701.788330 220.299652,701.199707 
	C219.270828,701.100220 218.010757,699.877991 217.469086,698.851746 
	C214.856049,693.900757 212.452194,688.839233 209.974152,683.816956 
	C211.494370,683.338562 213.014603,682.860168 214.988831,682.238831 
	C215.284409,676.434509 211.986008,669.795227 215.691315,664.044128 
	C218.996002,658.914978 221.989670,653.068176 228.891800,651.304077 
	C227.872849,648.581238 227.596420,645.254883 223.336945,645.098755 
	C226.014816,642.851013 228.585312,640.718140 231.531235,639.475159 
	C234.435211,638.249939 237.707962,637.870911 240.839737,637.221008 
	C244.230362,636.517456 247.645096,635.929932 251.049301,635.291809 
	C252.619263,635.604004 254.274353,635.708679 255.727997,636.304565 
	C256.631744,636.675171 257.230499,637.789734 257.803162,638.397461 
	C265.339508,640.835449 273.270599,643.139160 280.997528,645.995239 
	C285.956177,647.828064 290.490814,650.804321 295.444397,652.655823 
	C299.671539,654.235840 304.270569,654.791748 308.614685,656.100830 
	C310.707886,656.731628 312.501190,658.392639 314.599823,658.960083 
	C316.414581,659.450806 318.573883,659.452087 320.396149,658.970520 
	C324.454071,657.898315 328.396454,656.388733 333.038879,655.085449 
	C338.886353,654.839600 342.699890,652.245544 344.921387,647.698730 
	C346.748779,643.958557 349.309784,642.028076 353.114624,642.739075 
	C360.665710,625.268555 360.542969,607.087402 360.224304,589.120605 
	C359.072632,587.982788 357.946381,586.706238 357.883484,585.379333 
	C357.554871,578.447205 357.274597,571.498108 357.405609,564.562988 
	C357.538727,557.515930 358.165680,550.478149 358.584839,543.436768 
	C358.866364,538.708130 359.441742,533.975830 359.365692,529.253601 
	C359.302582,525.334656 358.184570,521.437378 358.058716,517.513733 
	C357.830536,510.400543 357.992157,503.274841 357.992676,496.154358 
	C357.997253,431.862610 357.984802,367.570831 358.044922,303.279144 
	C358.049072,298.851044 358.086395,294.397736 362.120667,291.027344 
	C363.297668,290.044037 363.817261,287.308624 363.451050,285.636292 
	C362.583008,281.672455 364.420380,279.247925 367.113129,277.035889 
	C372.370605,272.716888 377.635925,268.406525 382.957367,264.167175 
	C383.687103,263.585815 384.783752,263.068176 385.664917,263.133728 
	C397.486389,264.013184 410.398560,258.587982 420.616516,269.113617 
	C421.259918,269.776428 422.867035,269.400360 423.907898,269.808441 
	C425.046478,270.254852 426.312195,270.832855 427.058136,271.736755 
	C429.062317,274.165344 430.942108,276.720001 432.630096,279.377777 
	C433.750977,281.142639 434.456818,283.171051 435.411652,285.216919 
	C436.203583,285.872345 437.989929,286.595032 438.328888,287.744537 
	C443.479523,305.212860 442.732452,323.144043 442.276825,341.051758 
	C442.146210,346.184265 442.290314,351.323212 442.207367,356.457581 
	C442.019867,368.067719 441.554047,379.678101 441.625366,391.285828 
	C441.668121,398.236847 442.856934,405.180756 442.902039,412.131958 
	C442.952545,419.917694 442.304871,427.708618 441.937683,435.496185 
	C441.759155,439.282745 441.524872,443.066681 441.320618,446.852051 
	C441.101288,450.916351 440.605865,454.989319 440.726685,459.043732 
	C441.033722,469.348663 442.949371,479.813354 441.677887,489.893280 
	C440.622375,498.261383 442.231903,506.246124 441.817963,514.394958 
	C441.557922,519.513916 442.772369,525.119934 441.062378,529.653992 
	C438.655060,536.036865 437.093018,540.005859 438.991791,548.011780 
	C439.510925,543.995056 439.891266,541.052368 440.271576,538.109619 
	C441.382263,541.210449 441.629333,544.246033 441.328735,547.226440 
	C440.771454,552.752319 439.120850,558.269775 439.290131,563.748657 
	C439.879974,582.839966 441.053619,601.913330 442.005341,620.993469 
M427.505493,278.519897 
	C427.505493,278.519897 427.503174,278.494690 427.505493,278.519897 
z"/>
<path fill="#2977B4" opacity="1.000000" stroke="none" 
	d="
M442.009674,621.462402 
	C441.053619,601.913330 439.879974,582.839966 439.290131,563.748657 
	C439.120850,558.269775 440.771454,552.752319 441.328735,547.226440 
	C441.629333,544.246033 441.382263,541.210449 440.271576,538.109619 
	C439.891266,541.052368 439.510925,543.995056 438.991791,548.011780 
	C437.093018,540.005859 438.655060,536.036865 441.062378,529.653992 
	C442.772369,525.119934 441.557922,519.513916 441.817963,514.394958 
	C442.231903,506.246124 440.622375,498.261383 441.677887,489.893280 
	C442.949371,479.813354 441.033722,469.348663 440.726685,459.043732 
	C440.605865,454.989319 441.101288,450.916351 441.320618,446.852051 
	C441.524872,443.066681 441.759155,439.282745 441.937683,435.496185 
	C442.304871,427.708618 442.952545,419.917694 442.902039,412.131958 
	C442.856934,405.180756 441.668121,398.236847 441.625366,391.285828 
	C441.554047,379.678101 442.019867,368.067719 442.207367,356.457581 
	C442.290314,351.323212 442.146210,346.184265 442.276825,341.051758 
	C442.732452,323.144043 443.479523,305.212860 438.328888,287.744537 
	C437.989929,286.595032 436.203583,285.872345 435.411652,285.216919 
	C434.456818,283.171051 433.750977,281.142639 432.630096,279.377777 
	C430.942108,276.720001 429.062317,274.165344 427.058136,271.736755 
	C426.312195,270.832855 425.046478,270.254852 423.907898,269.808441 
	C422.867035,269.400360 421.259918,269.776428 420.616516,269.113617 
	C410.398560,258.587982 397.486389,264.013184 385.664917,263.133728 
	C384.783752,263.068176 383.687103,263.585815 382.957367,264.167175 
	C377.635925,268.406525 372.370605,272.716888 367.113129,277.035889 
	C364.420380,279.247925 362.583008,281.672455 363.451050,285.636292 
	C363.817261,287.308624 363.297668,290.044037 362.120667,291.027344 
	C358.086395,294.397736 358.049072,298.851044 358.044922,303.279144 
	C357.984802,367.570831 357.997253,431.862610 357.992676,496.154358 
	C357.992157,503.274841 357.830536,510.400543 358.058716,517.513733 
	C358.184570,521.437378 359.302582,525.334656 359.365692,529.253601 
	C359.441742,533.975830 358.866364,538.708130 358.584839,543.436768 
	C358.165680,550.478149 357.538727,557.515930 357.405609,564.562988 
	C357.274597,571.498108 357.554871,578.447205 357.883484,585.379333 
	C357.946381,586.706238 359.072632,587.982788 360.224304,589.120605 
	C360.542969,607.087402 360.665710,625.268555 353.114624,642.739075 
	C349.309784,642.028076 346.748779,643.958557 344.921387,647.698730 
	C342.699890,652.245544 338.886353,654.839600 333.443726,655.006226 
	C335.865875,652.337830 338.491730,649.728455 341.214935,647.224915 
	C348.442474,640.580322 351.246338,631.422668 354.449921,622.702881 
	C355.545990,619.719482 353.595551,615.616882 353.513641,611.516174 
	C354.416992,608.327942 355.211975,605.649719 355.215942,602.970337 
	C355.291718,551.531250 355.302399,500.092072 355.268982,448.652954 
	C355.235046,396.383301 355.138611,344.113708 355.069519,291.844086 
	C357.422028,271.345886 373.141266,259.479279 392.000061,259.131287 
	C398.608887,259.009308 405.366394,258.868774 411.818207,260.043091 
	C424.181458,262.293365 434.079010,268.579773 440.600586,279.856110 
	C445.505585,288.337311 446.070343,297.414673 446.042023,306.810760 
	C445.953247,336.280090 446.029877,365.749939 446.032257,395.219574 
	C446.033081,405.213623 446.003601,415.207642 445.714691,425.992462 
	C445.292175,427.929230 445.013641,429.075165 445.012726,430.221252 
	C444.995056,452.970428 444.996552,475.719666 445.047729,498.468750 
	C445.051025,499.929993 445.489136,501.390259 445.724976,502.850983 
	C445.802795,505.646667 445.880646,508.442383 445.667297,512.026428 
	C445.220795,513.961487 444.929840,515.108154 444.929871,516.254883 
	C444.931305,548.890503 444.948120,581.526123 445.029572,614.161560 
	C445.033569,615.764099 445.643677,617.365051 445.971558,618.966736 
	C446.008942,625.781494 446.215240,632.601746 445.990265,639.407837 
	C445.913666,641.725525 444.751648,644.007202 444.085571,646.305298 
	C443.395050,646.199158 442.704529,646.093018 442.014008,645.986877 
	C442.014008,637.968384 442.014008,629.949890 442.009674,621.462402 
M373.531281,270.503540 
	C373.531281,270.503540 373.490051,270.518555 373.531281,270.503540 
M359.501526,596.525635 
	C359.501526,596.525635 359.487274,596.484741 359.501526,596.525635 
z"/>
<path fill="#EA7E30" opacity="1.000000" stroke="none" 
	d="
M694.067566,418.896423 
	C695.906860,419.589935 697.746155,420.283447 699.826904,421.595276 
	C701.125671,422.527191 702.182922,422.840759 703.240173,423.154358 
	C703.240173,423.154358 703.430725,423.018219 703.710388,423.323364 
	C708.042480,423.858582 706.019714,420.677979 706.031616,419.316467 
	C706.203613,399.668335 706.196899,380.018188 706.150879,360.368713 
	C706.098999,338.224182 705.964355,316.079865 705.865601,293.935455 
	C706.079773,279.941437 712.819458,269.671173 724.681152,263.004547 
	C729.239258,260.442719 734.801086,259.666809 740.711182,258.283875 
	C747.704590,258.298309 753.892334,258.106049 760.080078,257.913788 
	C760.080078,257.913788 760.060242,258.058960 760.356750,257.990753 
	C761.796631,258.270966 762.940002,258.619415 764.083374,258.967865 
	C764.083374,258.967865 764.015320,258.975586 764.106567,259.283478 
	C768.873901,261.969727 773.647217,264.177216 778.201538,266.769470 
	C783.950989,270.042084 788.197998,274.561188 790.426270,281.111420 
	C791.922974,285.510986 794.594116,289.511017 796.739746,293.689819 
	C796.818787,295.100616 796.897766,296.511414 796.887817,298.799255 
	C797.239319,302.441772 797.679871,305.207245 798.120361,307.972717 
	C798.120422,307.972717 798.049988,307.876862 797.883301,308.228241 
	C797.580688,309.055573 797.327148,309.531250 797.325989,310.007477 
	C797.288635,325.596466 797.242676,341.185638 797.333374,356.774048 
	C797.339417,357.804779 798.414124,358.829315 798.991760,359.856720 
	C799.023682,408.635223 799.055664,457.413727 798.615967,506.765747 
	C797.837280,509.266937 797.270325,511.193542 797.262146,513.122498 
	C797.144287,540.925964 797.101440,568.729736 797.004761,596.871704 
	C797.203430,597.580933 797.437988,597.951904 797.826843,598.535950 
	C798.317932,598.785217 798.654785,598.821472 798.991577,598.857666 
	C799.023560,609.302246 799.055603,619.746887 798.740845,630.631531 
	C798.113770,631.322754 797.833374,631.573914 797.292725,632.170776 
	C797.008118,653.420776 796.983704,674.325134 796.959351,695.229431 
	C797.457031,707.329346 793.650269,718.073608 785.577759,726.900146 
	C779.984314,733.015930 773.136780,737.794067 764.441284,739.473511 
	C764.429565,738.511169 764.721741,737.777039 765.301575,736.869019 
	C767.283630,735.352905 768.902832,733.899841 770.686462,732.689209 
	C776.324585,728.862427 781.080017,724.945007 785.154663,718.703369 
	C791.075317,709.634033 793.016174,700.523010 793.023865,690.534363 
	C793.119324,566.582275 793.079590,442.630096 793.118530,318.677948 
	C793.120361,312.771637 793.543091,306.865845 793.736450,300.958740 
	C793.763184,300.142334 793.726135,299.281616 793.499146,298.505615 
	C790.793579,289.256866 788.609619,279.932953 781.129761,272.756104 
	C775.970276,267.805664 769.893127,265.147888 763.414612,263.357544 
	C759.214905,262.196899 754.517700,262.966827 750.180420,262.146820 
	C740.766296,260.367004 732.166504,264.065033 725.220581,268.607056 
	C714.001160,275.943634 708.908142,287.881531 708.909912,301.593750 
	C708.915039,340.745239 708.903259,379.896759 708.878113,419.048248 
	C708.877014,420.705322 708.941467,422.434448 708.516113,424.005676 
	C707.252380,428.672821 702.951416,429.765167 699.498657,426.418732 
	C698.661621,425.607483 697.843994,424.776184 696.972351,423.620483 
	C695.973999,421.823334 695.020752,420.359894 694.067566,418.896423 
M798.241821,459.500000 
	C798.241821,427.119202 798.241821,394.738403 798.241821,362.357605 
	C797.862549,362.359375 797.483215,362.361145 797.103943,362.362915 
	C797.103943,409.785767 797.103943,457.208649 797.103943,504.631531 
	C797.483459,504.635101 797.862976,504.638641 798.242493,504.642181 
	C798.242493,489.928131 798.242493,475.214050 798.241821,459.500000 
M798.241821,609.593323 
	C798.241821,606.845398 798.241821,604.097534 798.241821,601.349609 
	C797.864807,601.357727 797.487732,601.365845 797.110718,601.373962 
	C797.110718,610.457825 797.110718,619.541626 797.110718,628.625488 
	C797.487976,628.634094 797.865295,628.642761 798.242554,628.651367 
	C798.242554,622.622559 798.242554,616.593811 798.241821,609.593323 
z"/>
<path fill="#EB7A26" opacity="1.000000" stroke="none" 
	d="
M693.940552,418.623932 
	C695.020752,420.359894 695.973999,421.823334 696.683655,423.548645 
	C693.557861,422.542084 690.652161,421.323944 687.798584,419.994202 
	C682.750610,417.641998 677.940186,414.519226 672.662842,412.973450 
	C660.932373,409.537384 649.223999,405.698486 636.692627,406.100067 
	C623.602173,406.519562 610.457214,406.076874 597.425049,407.121155 
	C591.005005,407.635620 584.884216,411.623627 578.448853,412.278595 
	C571.381592,412.997864 565.726074,416.605316 559.911865,419.486115 
	C547.891968,425.441711 537.499573,433.952301 528.512085,444.010834 
	C524.329834,448.691467 519.805969,453.177307 516.323547,458.348480 
	C510.208588,467.428772 504.322754,476.728699 499.207642,486.395233 
	C495.464966,493.468201 492.251373,501.061737 490.321869,508.802094 
	C486.633270,523.599365 483.061768,538.548584 481.215576,553.651611 
	C478.866211,572.870850 478.439972,592.306702 483.288269,611.390686 
	C486.226898,622.957581 488.803619,634.651794 492.485535,645.982422 
	C495.058777,653.901245 500.453918,660.650269 503.946716,668.292053 
	C505.736969,672.208862 509.022583,675.450684 511.682861,678.959290 
	C516.284912,685.028992 520.733948,691.229858 525.618225,697.065125 
	C528.921265,701.011292 532.662292,704.658630 536.590149,707.988098 
	C538.881531,709.930542 543.058228,710.304810 544.415222,712.567200 
	C548.106934,718.721680 552.297485,722.804565 558.446716,720.928284 
	C560.861816,723.619080 562.063538,726.213562 563.906250,726.802490 
	C574.072693,730.051392 582.879028,737.257935 594.146057,737.288879 
	C594.778564,737.290588 595.397583,737.787781 596.043945,737.856934 
	C604.897949,738.803772 613.740112,739.941833 622.618103,740.556030 
	C628.395203,740.955688 634.227417,740.645325 640.031799,740.515381 
	C641.945190,740.472534 643.931702,740.252808 645.738342,739.664368 
	C648.721497,738.692688 651.604553,737.399963 654.496460,736.164429 
	C662.844788,732.597656 671.656677,729.791992 679.371216,725.162231 
	C686.209473,721.058350 691.805298,714.891663 697.991394,709.685242 
	C698.861206,708.953186 699.968384,708.503235 700.885254,708.261169 
	C694.482239,718.982605 684.514648,725.159912 674.561218,731.357422 
	C671.668762,733.158386 668.800415,734.998047 665.921021,736.819946 
	C665.180542,737.203430 664.440125,737.586975 663.116394,737.906250 
	C661.358093,738.158875 660.183044,738.475769 659.008057,738.792664 
	C659.008057,738.792664 658.567017,738.954407 657.965942,738.987000 
	C655.574951,739.612000 653.784912,740.204468 651.994873,740.796875 
	C639.270203,744.710754 626.195129,742.650024 613.275269,742.939514 
	C596.173950,743.322693 579.754517,740.166138 564.073853,731.584717 
	C559.907837,728.543152 556.152588,725.950684 552.482605,723.242676 
	C546.019592,718.473572 539.470703,713.805176 533.219849,708.769287 
	C528.247192,704.763245 523.665222,700.272156 518.909851,695.996399 
	C518.909851,695.996399 519.007507,695.996643 518.915771,695.738098 
	C518.184082,694.987305 517.544128,694.495117 516.904114,694.002869 
	C516.904114,694.002869 516.985962,694.019592 517.023071,693.681091 
	C515.430176,691.577454 513.800049,689.812317 512.169983,688.047180 
	C502.725342,677.083130 495.836761,664.682373 490.982361,651.061890 
	C488.657898,644.539978 485.369171,638.338257 483.353271,631.736267 
	C481.378815,625.269897 480.005646,618.535156 479.190430,611.818481 
	C477.791626,600.293640 475.906799,588.654236 476.284607,577.130432 
	C476.776764,562.116455 479.077057,547.142578 480.997925,532.202759 
	C481.942963,524.852600 483.284607,517.470764 485.369202,510.374268 
	C487.262573,503.928741 490.375519,497.837555 493.006836,491.613861 
	C495.626221,485.418274 497.584534,478.788757 501.141388,473.179291 
	C506.782043,464.283417 513.112061,455.741119 519.903503,447.684082 
	C525.659729,440.855164 532.481995,434.924835 539.348999,428.287842 
	C544.560181,424.573181 549.254883,421.167572 553.949524,417.761963 
	C553.949524,417.761932 553.908752,417.870422 554.173096,417.859924 
	C555.457092,417.304840 556.476746,416.760223 557.496338,416.215637 
	C562.012085,414.158630 566.448425,411.898102 571.064453,410.098297 
	C576.321045,408.048676 581.662354,406.125702 587.107849,404.678192 
	C591.932190,403.395721 596.933716,402.213715 601.885498,402.085052 
	C615.373291,401.734558 628.891174,401.592834 642.366272,402.134766 
	C648.383301,402.376740 654.327087,404.451843 660.302856,405.701111 
	C663.950562,406.463715 667.702576,406.916687 671.216858,408.083435 
	C676.299377,409.770752 681.209045,411.978729 686.715149,414.316711 
	C688.177002,415.087189 689.116089,415.505554 690.055237,415.923920 
	C690.055237,415.923920 690.015747,415.983978 690.063538,416.125122 
	C690.429749,416.249756 690.748108,416.233215 691.066528,416.216675 
	C691.982178,416.928284 692.897827,417.639832 693.940552,418.623932 
z"/>
<path fill="#AECFE9" opacity="1.000000" stroke="none" 
	d="
M354.669983,291.981750 
	C355.138611,344.113708 355.235046,396.383301 355.268982,448.652954 
	C355.302399,500.092072 355.291718,551.531250 355.215942,602.970337 
	C355.211975,605.649719 354.416992,608.327942 353.594421,611.172119 
	C353.126373,587.217102 352.998596,563.096680 352.992065,538.976196 
	C352.970367,458.727814 352.982819,378.479401 353.050598,298.231049 
	C353.052307,296.193512 353.846069,294.156586 354.669983,291.981750 
z"/>
<path fill="#2977B4" opacity="1.000000" stroke="none" 
	d="
M209.591248,683.875427 
	C212.452194,688.839233 214.856049,693.900757 217.469086,698.851746 
	C218.010757,699.877991 219.270828,701.100220 220.299652,701.199707 
	C226.385345,701.788330 229.630142,706.117249 233.417206,710.091003 
	C235.116287,711.873901 238.162399,712.421387 240.650360,713.393555 
	C245.323502,715.219604 250.526810,716.445007 248.701752,723.584656 
	C248.508041,724.342468 250.471985,726.208191 251.753860,726.665039 
	C254.053787,727.484558 256.609039,727.562683 259.031067,728.076050 
	C260.091217,728.300720 261.944397,728.772400 261.977661,729.236511 
	C262.309998,733.877747 265.972961,733.465515 268.918976,733.965149 
	C271.013885,734.320312 272.716461,734.595459 271.071106,737.538086 
	C262.259460,735.311768 254.125626,731.500305 245.846512,727.827759 
	C235.165054,723.089600 226.177536,716.864380 218.287033,708.374268 
	C212.267029,701.896729 209.818893,693.984314 207.262772,685.993896 
	C207.123703,685.559204 208.524399,684.631897 209.591248,683.875427 
M236.185410,716.993958 
	C236.185410,716.993958 236.144424,716.763367 236.144424,716.763367 
	C236.144424,716.763367 235.916870,716.939697 235.837891,717.033142 
	C235.837891,717.033142 236.066452,717.091980 236.185410,716.993958 
z"/>
<path fill="#EA7E30" opacity="1.000000" stroke="none" 
	d="
M666.333252,736.905518 
	C668.800415,734.998047 671.668762,733.158386 674.561218,731.357422 
	C684.514648,725.159912 694.482239,718.982605 701.125000,708.075500 
	C702.305847,706.692810 703.166504,705.834290 704.353271,705.081177 
	C706.767273,707.788269 708.855103,710.390015 710.970337,713.357300 
	C711.016724,714.455627 711.035767,715.188354 711.071289,716.289429 
	C713.372253,720.697083 714.180054,726.014221 720.014282,726.985962 
	C720.010071,726.993652 720.023926,726.980835 720.056641,727.341797 
	C724.037842,730.623657 727.604309,734.944275 732.020996,736.149902 
	C739.358398,738.152771 747.244629,738.131042 754.893677,739.013855 
	C757.315979,739.293457 759.719238,739.738647 762.131165,740.108093 
	C753.411499,739.903442 744.637207,740.227844 735.988647,739.334778 
	C728.411865,738.552429 721.951111,734.842407 716.504944,729.152954 
	C711.442993,723.864807 707.348328,718.266541 705.854797,710.984436 
	C705.709412,710.275757 704.968811,709.689087 704.345276,708.825073 
	C695.972900,721.215637 685.122131,730.121399 671.193604,735.107971 
	C669.680115,735.649719 668.226746,736.359314 666.333252,736.905518 
z"/>
<path fill="#EFAF7F" opacity="1.000000" stroke="none" 
	d="
M705.437622,293.967163 
	C705.964355,316.079865 706.098999,338.224182 706.150879,360.368713 
	C706.196899,380.018188 706.203613,399.668335 706.031616,419.316467 
	C706.019714,420.677979 708.042480,423.858582 703.819336,423.366272 
	C703.772461,419.462982 704.001221,415.821960 704.003845,412.180847 
	C704.030823,374.438934 704.008850,336.697021 704.063782,298.955200 
	C704.066223,297.302612 704.680359,295.650970 705.437622,293.967163 
z"/>
<path fill="#AECFE9" opacity="1.000000" stroke="none" 
	d="
M797.040649,596.533447 
	C797.101440,568.729736 797.144287,540.925964 797.262146,513.122498 
	C797.270325,511.193542 797.837280,509.266937 798.568115,507.241272 
	C799.022705,537.410095 799.053589,567.676819 799.038025,598.400635 
	C798.654785,598.821472 798.317932,598.785217 797.813599,598.209045 
	C797.444214,597.290588 797.242432,596.912048 797.040649,596.533447 
z"/>
<path fill="#2977B4" opacity="1.000000" stroke="none" 
	d="
M417.014709,707.914307 
	C418.270630,704.978577 420.000763,702.110962 421.496826,699.126038 
	C426.347076,689.448792 431.089600,679.717529 435.944672,670.042847 
	C436.404968,669.125610 437.364044,668.458740 438.452698,668.008484 
	C434.708221,681.572327 428.944977,693.994019 420.865631,705.271545 
	C420.052429,706.406616 418.559296,707.054565 417.014709,707.914307 
z"/>
<path fill="#2977B4" opacity="1.000000" stroke="none" 
	d="
M250.699921,635.054932 
	C247.645096,635.929932 244.230362,636.517456 240.839737,637.221008 
	C237.707962,637.870911 234.435211,638.249939 231.531235,639.475159 
	C228.585312,640.718140 226.014816,642.851013 223.116928,644.825073 
	C220.639709,647.022217 218.325439,648.988403 215.771057,651.158630 
	C215.354706,640.501099 237.116104,630.550354 250.699921,635.054932 
z"/>
<path fill="#EFAF7F" opacity="1.000000" stroke="none" 
	d="
M518.978271,696.346130 
	C523.665222,700.272156 528.247192,704.763245 533.219849,708.769287 
	C539.470703,713.805176 546.019592,718.473572 552.482605,723.242676 
	C556.152588,725.950684 559.907837,728.543152 563.696533,731.504028 
	C556.883362,727.881958 549.569031,724.528442 543.216370,719.864929 
	C534.205261,713.249817 525.368530,706.221252 518.978271,696.346130 
z"/>
<path fill="#EB7A26" opacity="1.000000" stroke="none" 
	d="
M762.442993,740.057373 
	C759.719238,739.738647 757.315979,739.293457 754.893677,739.013855 
	C747.244629,738.131042 739.358398,738.152771 732.020996,736.149902 
	C727.604309,734.944275 724.037842,730.623657 720.390991,727.438660 
	C721.272339,727.485596 721.843872,727.813049 722.432922,728.105347 
	C732.756775,733.227905 742.876831,738.828552 755.230530,736.320801 
	C758.315674,735.694580 761.743530,736.756775 765.013916,737.042969 
	C764.721741,737.777039 764.429565,738.511169 764.069580,739.534058 
	C763.586182,739.884155 763.170532,739.945374 762.442993,740.057373 
z"/>
<path fill="#EFAF7F" opacity="1.000000" stroke="none" 
	d="
M796.812866,293.304443 
	C794.594116,289.511017 791.922974,285.510986 790.426270,281.111420 
	C788.197998,274.561188 783.950989,270.042084 778.201538,266.769470 
	C773.647217,264.177216 768.873901,261.969727 764.105713,259.249237 
	C772.217041,260.474243 779.557068,263.848633 785.431702,269.851776 
	C791.707275,276.264771 795.632568,283.956543 796.812866,293.304443 
z"/>
<path fill="#1172BF" opacity="1.000000" stroke="none" 
	d="
M446.060272,618.509216 
	C445.643677,617.365051 445.033569,615.764099 445.029572,614.161560 
	C444.948120,581.526123 444.931305,548.890503 444.929871,516.254883 
	C444.929840,515.108154 445.220795,513.961487 445.594269,512.488037 
	C445.924591,547.458130 446.036804,582.754883 446.060272,618.509216 
z"/>
<path fill="#AECFE9" opacity="1.000000" stroke="none" 
	d="
M799.038086,359.399719 
	C798.414124,358.829315 797.339417,357.804779 797.333374,356.774048 
	C797.242676,341.185638 797.288635,325.596466 797.325989,310.007477 
	C797.327148,309.531250 797.580688,309.055573 797.931274,308.193176 
	C798.461731,309.317200 799.045593,310.826569 799.051819,312.338348 
	C799.116394,327.872894 799.087341,343.407837 799.038086,359.399719 
z"/>
<path fill="#1172BF" opacity="1.000000" stroke="none" 
	d="
M445.778198,502.399872 
	C445.489136,501.390259 445.051025,499.929993 445.047729,498.468750 
	C444.996552,475.719666 444.995056,452.970428 445.012726,430.221252 
	C445.013641,429.075165 445.292175,427.929230 445.618744,426.416321 
	C445.807861,451.349182 445.819641,476.648956 445.778198,502.399872 
z"/>
<path fill="#EFAF7F" opacity="1.000000" stroke="none" 
	d="
M797.328247,695.089111 
	C796.983704,674.325134 797.008118,653.420776 797.366455,632.644470 
	C797.702271,649.755005 797.662476,666.737793 797.760864,683.719788 
	C797.772644,685.758545 798.533875,687.792908 798.947754,689.829346 
	C798.530884,691.535828 798.114014,693.242310 797.328247,695.089111 
z"/>
<path fill="#AECFE9" opacity="1.000000" stroke="none" 
	d="
M799.014282,689.378906 
	C798.533875,687.792908 797.772644,685.758545 797.760864,683.719788 
	C797.662476,666.737793 797.702271,649.755005 797.626587,632.298767 
	C797.833374,631.573914 798.113770,631.322754 798.692871,631.106995 
	C799.021301,650.404419 799.051025,669.666504 799.014282,689.378906 
z"/>
<path fill="#2977B4" opacity="1.000000" stroke="none" 
	d="
M397.144165,723.199219 
	C400.530701,719.979736 403.984497,717.148804 408.401825,713.528137 
	C407.777679,720.691284 402.970245,724.290894 397.144165,723.199219 
z"/>
<path fill="#EFAF7F" opacity="1.000000" stroke="none" 
	d="
M553.559204,417.718536 
	C549.254883,421.167572 544.560181,424.573181 539.504822,427.973938 
	C543.819092,424.537781 548.493958,421.106445 553.559204,417.718536 
z"/>
<path fill="#EFAF7F" opacity="1.000000" stroke="none" 
	d="
M759.898865,257.507263 
	C753.892334,258.106049 747.704590,258.298309 741.106384,258.342773 
	C742.278748,257.776245 743.853943,257.036987 745.445862,256.998962 
	C750.199585,256.885437 754.959900,257.046753 759.898865,257.507263 
z"/>
<path fill="#EFAF7F" opacity="1.000000" stroke="none" 
	d="
M512.108215,688.402222 
	C513.800049,689.812317 515.430176,691.577454 517.014526,693.721924 
	C515.328064,692.319946 513.687256,690.538574 512.108215,688.402222 
z"/>
<path fill="#EA7E30" opacity="1.000000" stroke="none" 
	d="
M652.407288,740.881592 
	C653.784912,740.204468 655.574951,739.612000 657.736206,739.035767 
	C656.344910,739.690063 654.582336,740.328125 652.407288,740.881592 
z"/>
<path fill="#EFAF7F" opacity="1.000000" stroke="none" 
	d="
M798.089966,307.526855 
	C797.679871,305.207245 797.239319,302.441772 796.879639,299.224152 
	C797.326843,301.541687 797.693176,304.311340 798.089966,307.526855 
z"/>
<path fill="#EFAF7F" opacity="1.000000" stroke="none" 
	d="
M557.190308,416.184753 
	C556.476746,416.760223 555.457092,417.304840 554.119263,417.838623 
	C554.828735,417.269867 555.856567,416.711884 557.190308,416.184753 
z"/>
<path fill="#EA7E30" opacity="1.000000" stroke="none" 
	d="
M659.371399,738.878784 
	C660.183044,738.475769 661.358093,738.158875 662.794922,737.926941 
	C661.949402,738.329529 660.842102,738.647156 659.371399,738.878784 
z"/>
<path fill="#EA7E30" opacity="1.000000" stroke="none" 
	d="
M689.948364,415.600128 
	C689.116089,415.505554 688.177002,415.087189 687.092041,414.376770 
	C687.911316,414.481903 688.876404,414.879120 689.948364,415.600128 
z"/>
<path fill="#EFAF7F" opacity="1.000000" stroke="none" 
	d="
M702.874268,423.050110 
	C702.182922,422.840759 701.125671,422.527191 700.005554,421.873474 
	C700.797913,422.004150 701.653198,422.475006 702.874268,423.050110 
z"/>
<path fill="#EFAF7F" opacity="1.000000" stroke="none" 
	d="
M763.898315,258.627319 
	C762.940002,258.619415 761.796631,258.270966 760.284058,257.981384 
	C761.181030,258.122375 762.447144,258.204559 763.898315,258.627319 
z"/>
<path fill="#EFAF7F" opacity="1.000000" stroke="none" 
	d="
M516.969727,694.351807 
	C517.544128,694.495117 518.184082,694.987305 518.915894,695.786926 
	C518.350281,695.629761 517.692810,695.165222 516.969727,694.351807 
z"/>
<path fill="#EA7E30" opacity="1.000000" stroke="none" 
	d="
M690.824097,416.122864 
	C690.748108,416.233215 690.429749,416.249756 690.090698,416.101501 
	C690.240662,415.967499 690.411194,415.998260 690.824097,416.122864 
z"/>
<path fill="#2977B4" opacity="1.000000" stroke="none" 
	d="
M427.504333,278.507294 
	C427.503174,278.494690 427.505493,278.519897 427.504333,278.507294 
z"/>
<path fill="#1172BF" opacity="1.000000" stroke="none" 
	d="
M373.510681,270.511047 
	C373.490051,270.518555 373.531281,270.503540 373.510681,270.511047 
z"/>
<path fill="#1172BF" opacity="1.000000" stroke="none" 
	d="
M359.494385,596.505188 
	C359.487274,596.484741 359.501526,596.525635 359.494385,596.505188 
z"/>
<path fill="#FE6D01" opacity="1.000000" stroke="none" 
	d="
M765.301575,736.869019 
	C761.743530,736.756775 758.315674,735.694580 755.230530,736.320801 
	C742.876831,738.828552 732.756775,733.227905 722.432922,728.105347 
	C721.843872,727.813049 721.272339,727.485596 720.358276,727.077637 
	C720.023926,726.980835 720.010071,726.993652 719.918945,726.653564 
	C716.903503,722.849304 713.979187,719.385254 711.054871,715.921143 
	C711.035767,715.188354 711.016724,714.455627 711.151733,713.063965 
	C710.585571,709.838867 710.291077,707.034302 709.025513,704.773376 
	C707.755371,702.504395 705.604065,702.432190 704.027222,704.975708 
	C703.166504,705.834290 702.305847,706.692810 701.205444,707.737061 
	C699.968384,708.503235 698.861206,708.953186 697.991394,709.685242 
	C691.805298,714.891663 686.209473,721.058350 679.371216,725.162231 
	C671.656677,729.791992 662.844788,732.597656 654.496460,736.164429 
	C651.604553,737.399963 648.721497,738.692688 645.738342,739.664368 
	C643.931702,740.252808 641.945190,740.472534 640.031799,740.515381 
	C634.227417,740.645325 628.395203,740.955688 622.618103,740.556030 
	C613.740112,739.941833 604.897949,738.803772 596.043945,737.856934 
	C595.397583,737.787781 594.778564,737.290588 594.146057,737.288879 
	C582.879028,737.257935 574.072693,730.051392 563.906250,726.802490 
	C562.063538,726.213562 560.861816,723.619080 558.446716,720.928284 
	C552.297485,722.804565 548.106934,718.721680 544.415222,712.567200 
	C543.058228,710.304810 538.881531,709.930542 536.590149,707.988098 
	C532.662292,704.658630 528.921265,701.011292 525.618225,697.065125 
	C520.733948,691.229858 516.284912,685.028992 511.682861,678.959290 
	C509.022583,675.450684 505.736969,672.208862 503.946716,668.292053 
	C500.453918,660.650269 495.058777,653.901245 492.485535,645.982422 
	C488.803619,634.651794 486.226898,622.957581 483.288269,611.390686 
	C478.439972,592.306702 478.866211,572.870850 481.215576,553.651611 
	C483.061768,538.548584 486.633270,523.599365 490.321869,508.802094 
	C492.251373,501.061737 495.464966,493.468201 499.207642,486.395233 
	C504.322754,476.728699 510.208588,467.428772 516.323547,458.348480 
	C519.805969,453.177307 524.329834,448.691467 528.512085,444.010834 
	C537.499573,433.952301 547.891968,425.441711 559.911865,419.486115 
	C565.726074,416.605316 571.381592,412.997864 578.448853,412.278595 
	C584.884216,411.623627 591.005005,407.635620 597.425049,407.121155 
	C610.457214,406.076874 623.602173,406.519562 636.692627,406.100067 
	C649.223999,405.698486 660.932373,409.537384 672.662842,412.973450 
	C677.940186,414.519226 682.750610,417.641998 687.798584,419.994202 
	C690.652161,421.323944 693.557861,422.542084 696.728760,423.882294 
	C697.843994,424.776184 698.661621,425.607483 699.498657,426.418732 
	C702.951416,429.765167 707.252380,428.672821 708.516113,424.005676 
	C708.941467,422.434448 708.877014,420.705322 708.878113,419.048248 
	C708.903259,379.896759 708.915039,340.745239 708.909912,301.593750 
	C708.908142,287.881531 714.001160,275.943634 725.220581,268.607056 
	C732.166504,264.065033 740.766296,260.367004 750.180420,262.146820 
	C754.517700,262.966827 759.214905,262.196899 763.414612,263.357544 
	C769.893127,265.147888 775.970276,267.805664 781.129761,272.756104 
	C788.609619,279.932953 790.793579,289.256866 793.499146,298.505615 
	C793.726135,299.281616 793.763184,300.142334 793.736450,300.958740 
	C793.543091,306.865845 793.120361,312.771637 793.118530,318.677948 
	C793.079590,442.630096 793.119324,566.582275 793.023865,690.534363 
	C793.016174,700.523010 791.075317,709.634033 785.154663,718.703369 
	C781.080017,724.945007 776.324585,728.862427 770.686462,732.689209 
	C768.902832,733.899841 767.283630,735.352905 765.301575,736.869019 
M632.999268,484.998871 
	C632.999268,484.998871 632.990540,484.994537 632.146362,484.972626 
	C627.691406,484.615662 622.827820,482.931976 618.859375,484.154388 
	C607.643494,487.609161 597.539551,493.526337 589.763245,502.577148 
	C584.904358,508.232239 581.010681,514.452515 578.133667,521.560852 
	C575.479126,528.119568 571.142273,533.979004 570.989929,541.447693 
	C570.970032,542.420044 570.853516,543.567993 570.331665,544.323853 
	C566.768860,549.484131 566.955444,555.304749 567.023499,561.170105 
	C567.120117,569.501831 566.955566,577.836731 567.071045,586.167969 
	C567.159546,592.552429 566.884705,598.641418 570.275757,604.939148 
	C574.444336,612.680908 576.387878,621.618958 579.328796,630.027466 
	C579.537720,630.624817 579.950745,631.214905 580.417542,631.648193 
	C586.323792,637.131042 589.875244,644.382874 596.749817,649.520264 
	C606.983887,657.168335 616.699097,663.488831 630.939270,661.005615 
	C635.625366,660.994385 640.311401,660.983154 645.765015,661.256653 
	C649.357666,661.237000 653.175720,661.984070 656.487793,661.010193 
	C660.973267,659.691345 665.087708,657.086792 669.325073,654.961426 
	C670.784302,654.229553 672.501221,653.579590 673.476135,652.383362 
	C680.423950,643.859009 690.278992,637.757751 694.139832,626.616394 
	C696.444641,619.965088 700.365173,613.852051 702.448730,607.151672 
	C704.649109,600.075562 706.094543,592.644897 706.824463,585.265747 
	C707.520996,578.224426 707.003723,571.044189 706.697754,563.938904 
	C706.638855,562.571045 705.087341,561.267517 704.184509,559.182434 
	C704.399109,557.432800 704.613708,555.683167 705.239258,553.337585 
	C704.461792,549.573914 703.684265,545.810181 702.910828,541.333435 
	C702.572388,540.232605 702.233948,539.131836 701.772095,537.475159 
	C701.452515,537.015503 701.132935,536.555847 700.814758,535.322449 
	C700.783020,534.549438 700.751282,533.776428 700.813538,532.226746 
	C699.530273,529.525452 698.247009,526.824158 696.513245,523.602173 
	C694.652161,520.061707 692.791016,516.521179 691.215881,512.476257 
	C690.137512,511.007294 689.059143,509.538361 687.511536,507.588806 
	C685.652222,505.727600 683.792847,503.866364 681.790100,501.358002 
	C680.518372,500.292450 679.246643,499.226868 677.530823,497.666321 
	C675.984985,496.451630 674.439087,495.236938 672.718872,493.472626 
	C672.141235,493.016907 671.563599,492.561188 670.493896,492.044830 
	C670.493896,492.044830 670.000000,492.001068 669.782654,491.460052 
	C669.182556,491.032379 668.582520,490.604736 667.304382,490.116028 
	C666.851990,490.079437 666.399658,490.042847 665.747253,489.482819 
	C664.825562,489.316193 663.903870,489.149567 662.364563,488.937836 
	C661.951843,488.932129 661.539124,488.926392 660.859985,488.249420 
	C657.852661,483.596252 652.927734,482.599854 644.154114,485.014679 
	C642.119446,484.999847 640.084839,484.985016 637.797607,484.344269 
	C635.779175,481.458710 634.109558,481.162201 632.999268,484.998871 
z"/>
<path fill="#EFAF7F" opacity="1.000000" stroke="none" 
	d="
M798.242188,460.000000 
	C798.242493,475.214050 798.242493,489.928131 798.242493,504.642181 
	C797.862976,504.638641 797.483459,504.635101 797.103943,504.631531 
	C797.103943,457.208649 797.103943,409.785767 797.103943,362.362915 
	C797.483215,362.361145 797.862549,362.359375 798.241821,362.357605 
	C798.241821,394.738403 798.241821,427.119202 798.242188,460.000000 
z"/>
<path fill="#EFAF7F" opacity="1.000000" stroke="none" 
	d="
M798.242188,610.079163 
	C798.242554,616.593811 798.242554,622.622559 798.242554,628.651367 
	C797.865295,628.642761 797.487976,628.634094 797.110718,628.625488 
	C797.110718,619.541626 797.110718,610.457825 797.110718,601.373962 
	C797.487732,601.365845 797.864807,601.357727 798.241821,601.349609 
	C798.241821,604.097534 798.241821,606.845398 798.242188,610.079163 
z"/>
<path fill="#EFAF7F" opacity="1.000000" stroke="none" 
	d="
M797.004761,596.871704 
	C797.242432,596.912048 797.444214,597.290588 797.659302,597.996033 
	C797.437988,597.951904 797.203430,597.580933 797.004761,596.871704 
z"/>
<path fill="#1172BF" opacity="1.000000" stroke="none" 
	d="
M235.916870,716.939697 
	C235.916870,716.939697 236.144424,716.763367 236.144424,716.763367 
	C236.144424,716.763367 236.185410,716.993958 236.089844,717.003662 
	C235.994293,717.013306 235.916870,716.939697 235.916870,716.939697 
z"/>
<path fill="#1172BF" opacity="1.000000" stroke="none" 
	d="
M236.030365,717.052612 
	C236.066452,717.091980 235.837891,717.033142 235.877380,716.986450 
	C235.916870,716.939697 235.994293,717.013306 236.030365,717.052612 
z"/>
<path fill="#EB7A26" opacity="1.000000" stroke="none" 
	d="
M704.353271,705.081177 
	C705.604065,702.432190 707.755371,702.504395 709.025513,704.773376 
	C710.291077,707.034302 710.585571,709.838867 711.124390,712.698364 
	C708.855103,710.390015 706.767273,707.788269 704.353271,705.081177 
z"/>
<path fill="#EB7A26" opacity="1.000000" stroke="none" 
	d="
M711.071289,716.289429 
	C713.979187,719.385254 716.903503,722.849304 719.923096,726.645813 
	C714.180054,726.014221 713.372253,720.697083 711.071289,716.289429 
z"/>
<path fill="#EB7A26" opacity="1.000000" stroke="none" 
	d="
M630.009583,660.965149 
	C616.699097,663.488831 606.983887,657.168335 596.749817,649.520264 
	C589.875244,644.382874 586.323792,637.131042 580.417542,631.648193 
	C579.950745,631.214905 579.537720,630.624817 579.328796,630.027466 
	C576.387878,621.618958 574.444336,612.680908 570.275757,604.939148 
	C566.884705,598.641418 567.159546,592.552429 567.071045,586.167969 
	C566.955566,577.836731 567.120117,569.501831 567.023499,561.170105 
	C566.955444,555.304749 566.768860,549.484131 570.331665,544.323853 
	C570.853516,543.567993 570.970032,542.420044 570.989929,541.447693 
	C571.142273,533.979004 575.479126,528.119568 578.133667,521.560852 
	C581.010681,514.452515 584.904358,508.232239 589.763245,502.577148 
	C597.539551,493.526337 607.643494,487.609161 618.859375,484.154388 
	C622.827820,482.931976 627.691406,484.615662 632.568420,485.292786 
	C632.990417,486.025055 632.990356,486.437164 632.599487,486.918335 
	C631.153992,487.047821 630.099243,487.108276 628.717102,486.947571 
	C625.332275,486.831635 622.108948,486.348633 619.249451,487.155396 
	C611.532471,489.332489 603.800659,491.774109 599.027466,499.044983 
	C599.019775,499.014160 599.078979,499.037231 598.785522,499.124268 
	C597.548889,500.035004 596.605713,500.858734 595.512939,501.816956 
	C595.363281,501.951447 594.987793,502.096222 594.758667,502.288818 
	C594.191589,502.690796 593.853699,502.900208 593.695068,503.265503 
	C593.776672,503.779083 593.542542,503.960602 592.989075,504.004974 
	C592.566772,504.381653 592.327332,504.719299 592.032715,505.287964 
	C591.977539,505.519012 591.789551,505.955322 591.456787,506.022919 
	C588.191528,509.717957 585.129211,513.252258 582.416565,517.037170 
	C581.724426,518.002869 582.140320,519.762695 582.019714,521.372070 
	C581.992310,521.586487 581.871216,522.001526 581.604858,522.132019 
	C581.027893,523.075256 580.717224,523.888062 580.246826,525.025818 
	C579.994019,525.573425 579.900818,525.796082 579.548340,526.139771 
	C578.871887,526.867126 578.454712,527.473511 578.016602,528.502930 
	C576.311218,536.619019 574.346130,544.264099 573.020935,552.018494 
	C571.679626,559.866760 570.485352,567.803101 570.157227,575.739319 
	C569.938904,581.020569 570.992004,586.447449 572.123108,591.669006 
	C573.704651,598.969910 575.770813,606.174622 577.862976,613.352478 
	C579.006287,617.275146 580.630249,621.057617 582.059021,625.272339 
	C583.754150,628.069763 585.427734,630.498230 587.052795,632.955322 
	C587.004272,632.984070 587.089966,632.910034 587.110596,633.251709 
	C588.118713,634.712891 589.106201,635.832458 590.336182,637.038574 
	C590.724609,637.421814 590.870667,637.718445 591.019409,638.392944 
	C591.144958,644.028076 595.639343,644.983948 599.473877,646.987915 
	C600.886353,647.297729 602.264282,647.260986 602.886597,647.928589 
	C610.234253,655.811279 619.825745,658.168884 629.992065,659.495728 
	C629.999329,660.181580 630.004456,660.573364 630.009583,660.965149 
z"/>
<path fill="#EB7A26" opacity="1.000000" stroke="none" 
	d="
M704.224426,559.934265 
	C705.087341,561.267517 706.638855,562.571045 706.697754,563.938904 
	C707.003723,571.044189 707.520996,578.224426 706.824463,585.265747 
	C706.094543,592.644897 704.649109,600.075562 702.448730,607.151672 
	C700.365173,613.852051 696.444641,619.965088 694.139832,626.616394 
	C690.278992,637.757751 680.423950,643.859009 673.476135,652.383362 
	C672.501221,653.579590 670.784302,654.229553 669.325073,654.961426 
	C665.087708,657.086792 660.973267,659.691345 656.487793,661.010193 
	C653.175720,661.984070 649.357666,661.237000 645.497681,660.890686 
	C645.480347,660.085754 645.730408,659.646790 646.343140,659.031494 
	C651.860046,657.235657 657.014221,655.616150 662.414795,654.098999 
	C663.418823,653.769470 664.176392,653.337646 664.949219,652.952942 
	C664.964478,653.000000 664.912170,652.914917 665.281860,652.928284 
	C667.415466,651.618713 669.179504,650.295776 670.950745,648.965332 
	C670.957947,648.957825 670.971985,648.942444 671.254395,648.864380 
	C672.055481,648.238159 672.574219,647.690125 673.270996,647.063171 
	C673.449097,646.984314 673.834351,646.926575 674.180298,646.870239 
	C677.985107,643.356873 681.849792,640.211060 684.800110,636.364014 
	C688.473572,631.573975 691.516113,626.276123 694.524902,621.022217 
	C695.076660,620.058899 694.167114,618.258728 693.946045,616.445618 
	C693.972229,615.221924 693.754639,614.308899 694.032898,613.586975 
	C696.290344,607.731079 699.544922,602.093933 700.770203,596.040894 
	C703.162537,584.222473 704.670837,572.190063 703.217773,560.023987 
	C703.777161,559.976013 704.000793,559.955139 704.224426,559.934265 
z"/>
<path fill="#EA7E30" opacity="1.000000" stroke="none" 
	d="
M672.893250,494.022278 
	C674.439087,495.236938 675.984985,496.451630 677.846680,498.219177 
	C679.419495,499.849762 680.676514,500.927460 681.933533,502.005127 
	C683.792847,503.866364 685.652222,505.727600 687.829895,508.140442 
	C689.075500,510.121643 690.002686,511.551178 690.929932,512.980713 
	C692.791016,516.521179 694.652161,520.061707 696.783630,524.223206 
	C698.275818,527.563965 699.497681,530.283691 700.719482,533.003418 
	C700.751282,533.776428 700.783020,534.549438 700.737915,535.909729 
	C701.072632,537.008301 701.484070,537.519653 701.895508,538.031006 
	C702.233948,539.131836 702.572388,540.232605 702.790833,541.962158 
	C702.167358,544.396423 701.663818,546.202087 701.083923,547.617432 
	C700.002014,544.884399 698.547974,542.629700 698.067017,540.183716 
	C695.756470,528.432556 690.013977,518.304321 682.495972,509.397888 
	C677.518311,503.501068 671.478394,498.196472 665.048096,493.932678 
	C660.421448,490.864868 654.366028,489.951721 648.984863,488.034760 
	C649.021851,487.992096 649.093811,487.905090 649.450256,487.759949 
	C653.579956,488.050079 657.353149,488.485352 661.126404,488.920654 
	C661.539124,488.926392 661.951843,488.932129 662.933105,489.149384 
	C664.316895,489.576050 665.132080,489.791138 665.947266,490.006226 
	C666.399658,490.042847 666.851990,490.079437 667.762390,490.400665 
	C668.813599,491.123901 669.406799,491.562500 670.000000,492.001068 
	C670.000000,492.001068 670.493896,492.044830 670.848755,492.334503 
	C671.766785,493.090210 672.330017,493.556244 672.893250,494.022278 
z"/>
<path fill="#EB7A26" opacity="1.000000" stroke="none" 
	d="
M660.993164,488.585022 
	C657.353149,488.485352 653.579956,488.050079 649.299866,487.478943 
	C647.538391,486.577606 646.283752,485.812073 645.029114,485.046539 
	C652.927734,482.599854 657.852661,483.596252 660.993164,488.585022 
z"/>
<path fill="#EB7A26" opacity="1.000000" stroke="none" 
	d="
M701.160278,548.007690 
	C701.663818,546.202087 702.167358,544.396423 702.788818,542.318665 
	C703.684265,545.810181 704.461792,549.573914 704.780823,553.523743 
	C703.608704,553.476257 702.894958,553.242676 702.107300,552.637817 
	C701.742310,550.846985 701.451294,549.427368 701.160278,548.007690 
z"/>
<path fill="#EA7E30" opacity="1.000000" stroke="none" 
	d="
M644.591614,485.030609 
	C646.283752,485.812073 647.538391,486.577606 648.943420,487.624115 
	C649.093811,487.905090 649.021851,487.992096 648.554810,488.007904 
	C643.055237,487.632233 638.022766,487.240753 632.990295,486.849304 
	C632.990356,486.437164 632.990417,486.025055 632.990479,485.303711 
	C632.990540,484.994537 632.999268,484.998871 633.417969,485.001831 
	C635.241150,484.993256 636.645630,484.981720 638.050171,484.970215 
	C640.084839,484.985016 642.119446,484.999847 644.591614,485.030609 
z"/>
<path fill="#EA7E30" opacity="1.000000" stroke="none" 
	d="
M645.980469,659.207825 
	C645.730408,659.646790 645.480347,660.085754 645.113892,660.748291 
	C640.311401,660.983154 635.625366,660.994385 630.474426,660.985352 
	C630.004456,660.573364 629.999329,660.181580 630.454712,659.416199 
	C635.936951,659.097656 640.958740,659.152710 645.980469,659.207825 
z"/>
<path fill="#EB7A26" opacity="1.000000" stroke="none" 
	d="
M700.766479,532.615112 
	C699.497681,530.283691 698.275818,527.563965 697.008911,524.483582 
	C698.247009,526.824158 699.530273,529.525452 700.766479,532.615112 
z"/>
<path fill="#EA7E30" opacity="1.000000" stroke="none" 
	d="
M702.181274,553.009033 
	C702.894958,553.242676 703.608704,553.476257 704.575317,553.821716 
	C704.613708,555.683167 704.399109,557.432800 704.204468,559.558350 
	C704.000793,559.955139 703.777161,559.976013 702.879761,559.794922 
	C702.197693,557.398376 702.189514,555.203674 702.181274,553.009033 
z"/>
<path fill="#EB7A26" opacity="1.000000" stroke="none" 
	d="
M637.923889,484.657227 
	C636.645630,484.981720 635.241150,484.993256 633.416260,484.998047 
	C634.109558,481.162201 635.779175,481.458710 637.923889,484.657227 
z"/>
<path fill="#EB7A26" opacity="1.000000" stroke="none" 
	d="
M691.072876,512.728516 
	C690.002686,511.551178 689.075500,510.121643 688.064514,508.380737 
	C689.059143,509.538361 690.137512,511.007294 691.072876,512.728516 
z"/>
<path fill="#EB7A26" opacity="1.000000" stroke="none" 
	d="
M681.861816,501.681580 
	C680.676514,500.927460 679.419495,499.849762 678.068726,498.466675 
	C679.246643,499.226868 680.518372,500.292450 681.861816,501.681580 
z"/>
<path fill="#EB7A26" opacity="1.000000" stroke="none" 
	d="
M665.847290,489.744507 
	C665.132080,489.791138 664.316895,489.576050 663.241943,489.171936 
	C663.903870,489.149567 664.825562,489.316193 665.847290,489.744507 
z"/>
<path fill="#EB7A26" opacity="1.000000" stroke="none" 
	d="
M669.891357,491.730560 
	C669.406799,491.562500 668.813599,491.123901 668.101440,490.431183 
	C668.582520,490.604736 669.182556,491.032379 669.891357,491.730560 
z"/>
<path fill="#EB7A26" opacity="1.000000" stroke="none" 
	d="
M672.806030,493.747467 
	C672.330017,493.556244 671.766785,493.090210 671.094788,492.364807 
	C671.563599,492.561188 672.141235,493.016907 672.806030,493.747467 
z"/>
<path fill="#EB7A26" opacity="1.000000" stroke="none" 
	d="
M701.833801,537.753052 
	C701.484070,537.519653 701.072632,537.008301 700.737244,536.296631 
	C701.132935,536.555847 701.452515,537.015503 701.833801,537.753052 
z"/>
<path fill="#000000" opacity="1.000000" stroke="none" 
	d="
M702.107300,552.637817 
	C702.189514,555.203674 702.197693,557.398376 702.543945,559.822083 
	C704.670837,572.190063 703.162537,584.222473 700.770203,596.040894 
	C699.544922,602.093933 696.290344,607.731079 694.032898,613.586975 
	C693.754639,614.308899 693.972229,615.221924 693.599609,616.582031 
	C692.896851,617.479187 692.468689,617.790894 692.225098,618.209900 
	C688.783997,624.130737 685.527954,630.166565 681.889099,635.962280 
	C679.484131,639.792786 676.538086,643.283630 673.834351,646.926575 
	C673.834351,646.926575 673.449097,646.984314 672.909058,647.005981 
	C671.903320,647.665894 671.437622,648.304138 670.971985,648.942444 
	C670.971985,648.942444 670.957947,648.957825 670.589966,649.007080 
	C668.452026,650.342529 666.682129,651.628723 664.912170,652.914917 
	C664.912170,652.914917 664.964478,653.000000 664.611511,652.996033 
	C663.561829,653.326965 662.865112,653.661804 662.168396,653.996704 
	C657.014221,655.616150 651.860046,657.235657 646.343140,659.031494 
	C640.958740,659.152710 635.936951,659.097656 630.452637,659.122070 
	C619.825745,658.168884 610.234253,655.811279 602.886597,647.928589 
	C602.264282,647.260986 600.886353,647.297729 599.423950,646.636841 
	C596.331177,643.516052 593.673950,640.765564 591.016724,638.015076 
	C590.870667,637.718445 590.724609,637.421814 590.296936,636.690918 
	C589.040161,635.141174 588.065063,634.025635 587.089966,632.910034 
	C587.089966,632.910034 587.004272,632.984070 587.035400,632.587219 
	C585.390137,629.761353 583.713867,627.332275 582.037476,624.903259 
	C580.630249,621.057617 579.006287,617.275146 577.862976,613.352478 
	C575.770813,606.174622 573.704651,598.969910 572.123108,591.669006 
	C570.992004,586.447449 569.938904,581.020569 570.157227,575.739319 
	C570.485352,567.803101 571.679626,559.866760 573.020935,552.018494 
	C574.346130,544.264099 576.311218,536.619019 578.370728,528.465149 
	C579.099731,527.342407 579.453674,526.680603 579.807556,526.018738 
	C579.900818,525.796082 579.994019,525.573425 580.471680,524.915955 
	C581.194458,523.654602 581.532837,522.828064 581.871216,522.001526 
	C581.871216,522.001526 581.992310,521.586487 582.341064,521.229492 
	C583.666138,519.562744 584.769958,518.328003 585.593994,516.928528 
	C587.725037,513.309570 589.732666,509.617950 591.789551,505.955322 
	C591.789551,505.955322 591.977539,505.519012 592.288330,505.195557 
	C592.790100,504.570068 592.981018,504.268005 593.171936,503.965942 
	C593.542542,503.960602 593.776672,503.779083 594.042175,503.252808 
	C594.469299,502.754883 594.728577,502.425568 594.987793,502.096252 
	C594.987793,502.096222 595.363281,501.951447 595.769287,501.907288 
	C597.143250,500.921204 598.111145,499.979248 599.078979,499.037231 
	C599.078979,499.037231 599.019775,499.014160 599.399414,499.013123 
	C601.956848,497.670380 603.988464,495.936951 606.339600,495.059357 
	C613.844116,492.258209 621.467224,489.774811 629.044495,487.168701 
	C630.099243,487.108276 631.153992,487.047821 632.599487,486.918335 
	C638.022766,487.240753 643.055237,487.632233 648.517822,488.050568 
	C654.366028,489.951721 660.421448,490.864868 665.048096,493.932678 
	C671.478394,498.196472 677.518311,503.501068 682.495972,509.397888 
	C690.013977,518.304321 695.756470,528.432556 698.067017,540.183716 
	C698.547974,542.629700 700.002014,544.884399 701.083862,547.617432 
	C701.451294,549.427368 701.742310,550.846985 702.107300,552.637817 
z"/>
<path fill="#EA7E30" opacity="1.000000" stroke="none" 
	d="
M628.717102,486.947540 
	C621.467224,489.774811 613.844116,492.258209 606.339600,495.059357 
	C603.988464,495.936951 601.956848,497.670380 599.407104,499.043945 
	C603.800659,491.774109 611.532471,489.332489 619.249451,487.155396 
	C622.108948,486.348633 625.332275,486.831635 628.717102,486.947540 
z"/>
<path fill="#EA7E30" opacity="1.000000" stroke="none" 
	d="
M591.456787,506.022919 
	C589.732666,509.617950 587.725037,513.309570 585.593994,516.928528 
	C584.769958,518.328003 583.666138,519.562744 582.368469,521.015076 
	C582.140320,519.762695 581.724426,518.002869 582.416565,517.037170 
	C585.129211,513.252258 588.191528,509.717957 591.456787,506.022919 
z"/>
<path fill="#EA7E30" opacity="1.000000" stroke="none" 
	d="
M591.019409,638.392944 
	C593.673950,640.765564 596.331177,643.516052 599.038330,646.617554 
	C595.639343,644.983948 591.144958,644.028076 591.019409,638.392944 
z"/>
<path fill="#EA7E30" opacity="1.000000" stroke="none" 
	d="
M582.059082,625.272339 
	C583.713867,627.332275 585.390137,629.761353 587.083862,632.558472 
	C585.427734,630.498230 583.754150,628.069763 582.059082,625.272339 
z"/>
<path fill="#EA7E30" opacity="1.000000" stroke="none" 
	d="
M587.110596,633.251709 
	C588.065063,634.025635 589.040161,635.141174 590.054443,636.604370 
	C589.106201,635.832458 588.118713,634.712891 587.110596,633.251709 
z"/>
<path fill="#EA7E30" opacity="1.000000" stroke="none" 
	d="
M598.785522,499.124268 
	C598.111145,499.979248 597.143250,500.921204 595.918945,501.772797 
	C596.605713,500.858734 597.548889,500.035004 598.785522,499.124268 
z"/>
<path fill="#EA7E30" opacity="1.000000" stroke="none" 
	d="
M581.604858,522.132019 
	C581.532837,522.828064 581.194458,523.654602 580.631348,524.591003 
	C580.717224,523.888062 581.027893,523.075256 581.604858,522.132019 
z"/>
<path fill="#EA7E30" opacity="1.000000" stroke="none" 
	d="
M579.548340,526.139771 
	C579.453674,526.680603 579.099731,527.342407 578.391724,528.042114 
	C578.454712,527.473511 578.871887,526.867126 579.548340,526.139771 
z"/>
<path fill="#EA7E30" opacity="1.000000" stroke="none" 
	d="
M592.989075,504.004974 
	C592.981018,504.268005 592.790100,504.570068 592.343506,504.964539 
	C592.327332,504.719299 592.566772,504.381653 592.989075,504.004974 
z"/>
<path fill="#EA7E30" opacity="1.000000" stroke="none" 
	d="
M594.758667,502.288818 
	C594.728577,502.425568 594.469299,502.754883 593.862915,503.096893 
	C593.853699,502.900208 594.191589,502.690796 594.758667,502.288818 
z"/>
<path fill="#EA7E30" opacity="1.000000" stroke="none" 
	d="
M674.180298,646.870239 
	C676.538086,643.283630 679.484131,639.792786 681.889099,635.962280 
	C685.527954,630.166565 688.783997,624.130737 692.225098,618.209900 
	C692.468689,617.790894 692.896851,617.479187 693.585632,616.981201 
	C694.167114,618.258728 695.076660,620.058899 694.524902,621.022217 
	C691.516113,626.276123 688.473572,631.573975 684.800110,636.364014 
	C681.849792,640.211060 677.985107,643.356873 674.180298,646.870239 
z"/>
<path fill="#EA7E30" opacity="1.000000" stroke="none" 
	d="
M665.281860,652.928284 
	C666.682129,651.628723 668.452026,650.342529 670.582764,649.014648 
	C669.179504,650.295776 667.415466,651.618713 665.281860,652.928284 
z"/>
<path fill="#EA7E30" opacity="1.000000" stroke="none" 
	d="
M662.414795,654.098999 
	C662.865112,653.661804 663.561829,653.326965 664.596252,652.948975 
	C664.176392,653.337646 663.418823,653.769470 662.414795,654.098999 
z"/>
<path fill="#EA7E30" opacity="1.000000" stroke="none" 
	d="
M671.254395,648.864380 
	C671.437622,648.304138 671.903320,647.665894 672.730957,647.084839 
	C672.574219,647.690125 672.055481,648.238159 671.254395,648.864380 
z"/>
</svg>