<?xml version="1.0" encoding="UTF-8"?>
<svg version="1.1" xmlns="http://www.w3.org/2000/svg" width="500" height="500">
<path d="M0 0 C0.66 0 1.32 0 2 0 C2.72689485 2.67760138 3.17653422 5.22021233 3.39453125 7.984375 C4.32342222 18.67792148 6.00473969 28.69408583 9 39 C9.42925781 40.53333984 9.42925781 40.53333984 9.8671875 42.09765625 C12.54375727 50.89717546 16.70397995 58.90543819 21 67 C21.53367188 68.03125 22.06734375 69.0625 22.6171875 70.125 C50.51100419 121.19427633 111.27187476 142.09214001 161.9831543 162.66796875 C256.84966014 201.16405823 256.84966014 201.16405823 273.75 236.84765625 C281.49424446 256.37767274 280.6251034 279.89782237 272.4375 299.1484375 C270.07880133 303.82737779 267.28465219 307.92570416 264 312 C263.33097656 312.83273437 262.66195313 313.66546875 261.97265625 314.5234375 C246.97077117 332.15675631 226.58493567 340.59205921 204.2734375 344.38671875 C201.13016071 344.82039478 201.13016071 344.82039478 199 346 C196.17914471 346.0990889 193.38350992 346.13982248 190.5625 346.1328125 C189.72662354 346.13376923 188.89074707 346.13472595 188.02954102 346.13571167 C186.26090418 346.13639268 184.49226485 346.13454391 182.72363281 346.13037109 C180.01101079 346.12502171 177.29855435 346.13031875 174.5859375 346.13671875 C172.8697913 346.13605795 171.1536452 346.13477676 169.4375 346.1328125 C168.2155896 346.13584885 168.2155896 346.13584885 166.96899414 346.13894653 C161.22991928 346.11495964 161.22991928 346.11495964 159 345 C157.67856341 344.78315534 156.35005592 344.60842607 155.01953125 344.45703125 C120.46270191 340.22205932 86.52222713 328.25620559 58 308 C57.36400879 307.55043945 56.72801758 307.10087891 56.07275391 306.63769531 C47.05297236 300.2033957 38.619639 293.33879089 30.67138672 285.62011719 C29.51799609 284.50210664 28.35770753 283.39118375 27.19189453 282.28613281 C17.34484494 272.9492532 8.86789842 263.05221248 1 252 C0.54254395 251.360625 0.08508789 250.72125 -0.38623047 250.0625 C-23.136529 217.95623525 -37.8880575 177.72201021 -38.23828125 138.19140625 C-38.2480751 137.27532089 -38.25786896 136.35923553 -38.26795959 135.41539001 C-38.68195135 86.65581739 -28.91042032 41.72904953 -1 1 C-0.67 0.67 -0.34 0.34 0 0 Z " fill="#DB000A" transform="translate(68,126)"/>
<path d="M0 0 C0.86581696 -0.00705963 1.73163391 -0.01411926 2.62368774 -0.02139282 C39.06080875 -0.25097258 39.06080875 -0.25097258 53.8671875 3.203125 C54.73005371 3.40180176 55.59291992 3.60047852 56.48193359 3.80517578 C98.33998566 13.76072531 133.83692072 33.60302415 164.8671875 63.203125 C166.25164062 64.50830078 166.25164062 64.50830078 167.6640625 65.83984375 C174.82332113 72.76652759 180.91657391 80.23491206 186.8671875 88.203125 C187.51518311 89.05994873 187.51518311 89.05994873 188.17626953 89.93408203 C210.19075352 119.15603634 222.68138765 153.38786371 228.8671875 189.203125 C229.04725342 190.23542236 229.04725342 190.23542236 229.23095703 191.28857422 C235.59993103 229.64479466 228.09716545 269.48911272 213.8671875 305.203125 C213.38111473 306.47250481 212.89539763 307.7420209 212.41015625 309.01171875 C207.25995509 321.85011646 200.06292661 334.07292595 191.8671875 345.203125 C190.8771875 344.873125 189.8871875 344.543125 188.8671875 344.203125 C188.82754883 343.62570557 188.78791016 343.04828613 188.74707031 342.45336914 C185.87850886 302.44803079 170.56646571 266.84687869 140.15820312 239.89282227 C128.20739112 229.62873419 114.73078617 221.5910547 100.8671875 214.203125 C100.27486328 213.88698242 99.68253906 213.57083984 99.07226562 213.24511719 C75.34019661 200.71765378 50.27335165 190.84123004 25.40846252 180.84204102 C-43.32769178 153.17367554 -43.32769178 153.17367554 -67.1328125 130.203125 C-67.83277344 129.54054687 -68.53273437 128.87796875 -69.25390625 128.1953125 C-78.75522382 118.4532208 -83.99637529 105.48218731 -86.1328125 92.203125 C-86.26171875 91.49027344 -86.390625 90.77742188 -86.5234375 90.04296875 C-89.49407878 71.00741214 -84.94990714 50.5408946 -73.77832031 34.87963867 C-66.90784479 25.67740789 -59.13074293 18.79720512 -49.1328125 13.203125 C-48.09640625 12.60628906 -47.06 12.00945313 -45.9921875 11.39453125 C-31.83774886 3.74125919 -16.04941096 0.08656512 0 0 Z " fill="#FEB400" transform="translate(239.1328125,31.796875)"/>
<path d="M0 0 C0.86581696 -0.00705963 1.73163391 -0.01411926 2.62368774 -0.02139282 C31.75012729 -0.20491009 57.18292484 2.72290391 84.8671875 12.203125 C81.55431721 13.14240293 80.06974665 13.15039374 76.8671875 11.828125 C72.19149259 10.13136215 67.82182004 9.76191555 62.8828125 9.4453125 C58.50551953 9.09376825 54.06075266 8.5482308 49.8671875 7.203125 C49.5371875 6.543125 49.2071875 5.883125 48.8671875 5.203125 C46.2271875 5.533125 43.5871875 5.863125 40.8671875 6.203125 C40.8671875 5.543125 40.8671875 4.883125 40.8671875 4.203125 C39.9184375 4.22375 38.9696875 4.244375 37.9921875 4.265625 C34.8671875 4.203125 34.8671875 4.203125 32.8671875 3.203125 C29.91267111 3.09168682 26.98244724 3.03900148 24.02734375 3.03515625 C23.14944687 3.03182785 22.27154999 3.02849945 21.36705017 3.02507019 C19.50845871 3.02000282 17.64985813 3.01766181 15.79125977 3.01782227 C12.94467203 3.01563651 10.09847221 2.99748092 7.25195312 2.97851562 C5.447918 2.97558155 3.64388102 2.97359685 1.83984375 2.97265625 C0.98665054 2.96547073 0.13345734 2.95828522 -0.74559021 2.95088196 C-5.73577927 2.95987278 -5.73577927 2.95987278 -10.1328125 5.203125 C-14.07515019 6.62236657 -17.41818962 7.29122013 -21.5703125 7.140625 C-26.39760535 7.01663631 -29.7484055 8.20322005 -34.1328125 10.203125 C-34.7928125 10.863125 -35.4528125 11.523125 -36.1328125 12.203125 C-40.27723309 13.89856979 -43.668725 14.4157006 -48.1328125 14.203125 C-48.4628125 15.193125 -48.7928125 16.183125 -49.1328125 17.203125 C-51.04907863 19.82538392 -52.0650359 20.18850652 -55.3203125 20.890625 C-56.2484375 20.99375 -57.1765625 21.096875 -58.1328125 21.203125 C-58.4628125 22.523125 -58.7928125 23.843125 -59.1328125 25.203125 C-60.1228125 25.203125 -61.1128125 25.203125 -62.1328125 25.203125 C-62.1328125 25.863125 -62.1328125 26.523125 -62.1328125 27.203125 C-62.8959375 27.615625 -63.6590625 28.028125 -64.4453125 28.453125 C-67.75944847 30.61116703 -68.56819811 32.62686355 -70.1328125 36.203125 C-70.7928125 37.193125 -71.4528125 38.183125 -72.1328125 39.203125 C-72.7928125 39.203125 -73.4528125 39.203125 -74.1328125 39.203125 C-74.3803125 39.863125 -74.6278125 40.523125 -74.8828125 41.203125 C-76.45098295 44.96673407 -78.27786296 48.5742674 -80.1328125 52.203125 C-80.7928125 52.203125 -81.4528125 52.203125 -82.1328125 52.203125 C-78.41551126 37.58174013 -67.306982 24.73160805 -54.8828125 16.515625 C-52.98069698 15.38657598 -51.06315819 14.28319937 -49.1328125 13.203125 C-48.09640625 12.60628906 -47.06 12.00945313 -45.9921875 11.39453125 C-31.83774886 3.74125919 -16.04941096 0.08656512 0 0 Z " fill="#F1B321" transform="translate(239.1328125,31.796875)"/>
<path d="M0 0 C3.26528029 6.15927742 3.88818898 13.18464405 5 20 C5.31517578 21.90458984 5.31517578 21.90458984 5.63671875 23.84765625 C9.70784521 52.69202034 6.30593203 81.01799156 -1 109 C-1.33 109 -1.66 109 -2 109 C-2.0270043 107.54176788 -2.04639787 106.08339325 -2.0625 104.625 C-2.07410156 103.81289063 -2.08570313 103.00078125 -2.09765625 102.1640625 C-2 100 -2 100 -1 98 C-0.79470574 96.66291419 -0.63411501 95.3187459 -0.5 93.97265625 C-0.4175 93.18052734 -0.335 92.38839844 -0.25 91.57226562 C-0.1675 90.74404297 -0.085 89.91582031 0 89.0625 C0.16357053 87.4280726 0.33011837 85.79393974 0.5 84.16015625 C0.60828125 83.07166382 0.60828125 83.07166382 0.71875 81.96118164 C1 80 1 80 2 77 C2.09066327 75.61533161 2.12788861 74.22674389 2.12939453 72.83911133 C2.13412277 71.58684502 2.13412277 71.58684502 2.13894653 70.3092804 C2.13591019 68.95929207 2.13591019 68.95929207 2.1328125 67.58203125 C2.13424759 66.1852137 2.13424759 66.1852137 2.13571167 64.76017761 C2.13639247 62.78730197 2.13454512 60.81442408 2.13037109 58.84155273 C2.12505157 55.8415819 2.13030382 52.84176286 2.13671875 49.84179688 C2.13605736 47.92187467 2.13477494 46.00195256 2.1328125 44.08203125 C2.13483673 43.19216019 2.13686096 42.30228912 2.13894653 41.38545227 C2.11957771 36.158809 1.7016732 31.17764484 1 26 C0.86573359 23.84535148 0.75910649 21.68875679 0.68359375 19.53125 C0.64169922 18.38398438 0.59980469 17.23671875 0.55664062 16.0546875 C0.51732422 14.88164062 0.47800781 13.70859375 0.4375 12.5 C0.37272461 10.69402344 0.37272461 10.69402344 0.30664062 8.8515625 C0.20126832 5.90113807 0.09914097 2.95063929 0 0 Z " fill="#F7B41D" transform="translate(463,201)"/>
<path d="M0 0 C1.32 0 2.64 0 4 0 C4 0.66 4 1.32 4 2 C5.2684375 2.12375 5.2684375 2.12375 6.5625 2.25 C10.72113491 3.15733853 13.39582699 4.76541273 17 7 C17 7.66 17 8.32 17 9 C21.42605006 10.44524884 21.42605006 10.44524884 26 11 C27.01866229 12.65532623 28.01810813 14.32260138 29 16 C29.66 16.33 30.32 16.66 31 17 C31 17.99 31 18.98 31 20 C31.76183594 19.90847656 32.52367187 19.81695312 33.30859375 19.72265625 C36 20 36 20 37.66015625 21.93359375 C38.12292969 22.75988281 38.58570313 23.58617187 39.0625 24.4375 C40.89806697 27.93945378 40.89806697 27.93945378 44.18359375 29.78515625 C44.78300781 29.85605469 45.38242187 29.92695313 46 30 C46 30.99 46 31.98 46 33 C47.98 32.505 47.98 32.505 50 32 C50 32.66 50 33.32 50 34 C49.34 34 48.68 34 48 34 C48 34.66 48 35.32 48 36 C49.65 35.34 51.3 34.68 53 34 C53.12375 34.969375 53.2475 35.93875 53.375 36.9375 C53.58125 37.948125 53.7875 38.95875 54 40 C54.99 40.495 54.99 40.495 56 41 C56 41.66 56 42.32 56 43 C56.66 43 57.32 43 58 43 C58 44.65 58 46.3 58 48 C58.66 48 59.32 48 60 48 C60.66 50.64 61.32 53.28 62 56 C58.6097977 52.92762917 56.00661457 49.6845726 53.375 45.9375 C39.75817698 26.9757558 21.73978777 13.58397574 1.66015625 2.05859375 C1.11230469 1.70925781 0.56445312 1.35992187 0 1 C0 0.67 0 0.34 0 0 Z " fill="#E1B132" transform="translate(346,248)"/>
<path d="M0 0 C0.33 0 0.66 0 1 0 C1.34409122 8.46846713 1.14994766 17.70721975 -2.07421875 25.64453125 C-3.17420947 28.4432418 -3.03216647 30.77132746 -2.77734375 33.7421875 C-3 36 -3 36 -4.48193359 39.0378418 C-6.44926293 43.53740279 -6.47568563 47.79883295 -6.51171875 52.65234375 C-6.52966995 53.55247696 -6.54762115 54.45261017 -6.56611633 55.38002014 C-6.61995245 58.23246691 -6.65402888 61.08474893 -6.6875 63.9375 C-6.72069668 65.88088217 -6.7551885 67.82424267 -6.79101562 69.76757812 C-6.87566341 74.51159936 -6.94260136 79.255574 -7 84 C-6.01 84 -5.02 84 -4 84 C-3.3668316 93.01134307 -2.8276216 101.95971078 -3 111 C-10.16827363 97.86037705 -8.53145439 78.36143068 -8.4375 63.8125 C-8.43512329 62.83641785 -8.43274658 61.86033569 -8.43029785 60.85467529 C-8.35108576 39.99251001 -6.20539199 20.00248693 0 0 Z " fill="#A81A1F" transform="translate(38,188)"/>
<path d="M0 0 C0.33 0.66 0.66 1.32 1 2 C1.64710937 2.11730469 2.29421875 2.23460937 2.9609375 2.35546875 C3.97027344 2.67451172 3.97027344 2.67451172 5 3 C5.9765625 4.92578125 5.9765625 4.92578125 6.625 7.3125 C7.30381345 9.7282773 7.93374336 11.87153839 9.0859375 14.10546875 C10 16 10 16 10 19 C10.66 19 11.32 19 12 19 C12.33 21.31 12.66 23.62 13 26 C13.99 26.33 14.98 26.66 16 27 C16 28.32 16 29.64 16 31 C16.66 31 17.32 31 18 31 C18 31.99 18 32.98 18 34 C18.66 34 19.32 34 20 34 C20 34.66 20 35.32 20 36 C22.31 35.34 24.62 34.68 27 34 C26.67 36.64 26.34 39.28 26 42 C26.66 42 27.32 42 28 42 C28 42.66 28 43.32 28 44 C28.66 44 29.32 44 30 44 C30 45.98 30 47.96 30 50 C31.32 50 32.64 50 34 50 C34 51.65 34 53.3 34 55 C34.66 55 35.32 55 36 55 C36.2475 55.639375 36.495 56.27875 36.75 56.9375 C37.81562433 59.18741541 37.81562433 59.18741541 40.125 59.75 C40.74375 59.8325 41.3625 59.915 42 60 C42.66 62.31 43.32 64.62 44 67 C24.63144136 51.84199759 8.740969 25.7379455 0 3 C0 2.01 0 1.02 0 0 Z " fill="#BD0C13" transform="translate(47,336)"/>
<path d="M0 0 C3.57589067 0.55013703 7.13727459 1.17887737 10.6875 1.875 C11.43386719 2.01679688 12.18023437 2.15859375 12.94921875 2.3046875 C15.34470937 3.11687289 16.23425725 4.22536182 18 6 C23.7425827 8.64535367 29.74791202 10.249126 35.921875 11.50390625 C39.18951378 12.28396288 41.99502917 13.49751458 45 15 C45.495 15.99 45.495 15.99 46 17 C47.65 17 49.3 17 51 17 C51 17.99 51 18.98 51 20 C52.65 20 54.3 20 56 20 C56.495 20.99 56.495 20.99 57 22 C59.32156597 22.40729228 61.6568787 22.74438677 64 23 C64.495 24.485 64.495 24.485 65 26 C65.66 26 66.32 26 67 26 C67.495 26.99 67.495 26.99 68 28 C71.58646443 29.74199701 75.06693147 30.45119974 79 31 C79 31.99 79 32.98 79 34 C80.32 34 81.64 34 83 34 C83 34.99 83 35.98 83 37 C78.53306572 35.63229614 74.5757868 33.84680719 70.4375 31.6875 C47.60086618 20.0586442 23.78690318 10.47772244 0 1 C0 0.67 0 0.34 0 0 Z " fill="#E7B52C" transform="translate(263,211)"/>
<path d="M0 0 C8.57142857 -0.28571429 8.57142857 -0.28571429 12 2 C12 2.66 12 3.32 12 4 C13.00933594 4.12632812 14.01867187 4.25265625 15.05859375 4.3828125 C18.84121085 4.9751351 22.37443635 5.8573311 26.0625 6.875 C33.89298473 8.95268862 41.77977027 10.0616586 49.81274414 11.04833984 C50.71758545 11.16000488 51.62242676 11.27166992 52.5546875 11.38671875 C53.36405762 11.48170654 54.17342773 11.57669434 55.00732422 11.67456055 C57 12 57 12 59 13 C63.61948385 13.27581503 68.24824167 13.2318202 72.875 13.25 C74.78539062 13.2809375 74.78539062 13.2809375 76.734375 13.3125 C85.00260627 13.3463169 92.07953152 12.25884126 100 10 C103.46716559 9.20929742 106.95010332 8.50781493 110.4375 7.8125 C111.29537109 7.63525391 112.15324219 7.45800781 113.03710938 7.27539062 C117.07608657 6.46509233 120.85631388 5.75325072 125 6 C118.24234179 10.50510547 110.27010335 11.63673485 102.40942383 12.99780273 C98.59140521 13.62682895 98.59140521 13.62682895 95 15 C92.17914471 15.0990889 89.38350992 15.13982248 86.5625 15.1328125 C85.72662354 15.13376923 84.89074707 15.13472595 84.02954102 15.13571167 C82.26090418 15.13639268 80.49226485 15.13454391 78.72363281 15.13037109 C76.01101079 15.12502171 73.29855435 15.13031875 70.5859375 15.13671875 C68.8697913 15.13605795 67.1536452 15.13477676 65.4375 15.1328125 C64.2155896 15.13584885 64.2155896 15.13584885 62.96899414 15.13894653 C57.22991928 15.11495964 57.22991928 15.11495964 55 14 C53.67856341 13.78315534 52.35005592 13.60842607 51.01953125 13.45703125 C41.12803429 12.24213316 31.52133548 10.59507033 21.875 8.0625 C20.95307861 7.82184814 20.03115723 7.58119629 19.08129883 7.33325195 C12.58415789 5.57235552 6.29263939 3.38573771 0 1 C0 0.67 0 0.34 0 0 Z " fill="#B1232A" transform="translate(172,457)"/>
<path d="M0 0 C0.99 0.33 1.98 0.66 3 1 C3 1.66 3 2.32 3 3 C3.66 3 4.32 3 5 3 C5 4.65 5 6.3 5 8 C5.99 8 6.98 8 8 8 C8.18175781 9.04800781 8.18175781 9.04800781 8.3671875 10.1171875 C8.53476562 11.02726562 8.70234375 11.93734375 8.875 12.875 C9.11863281 14.23238281 9.11863281 14.23238281 9.3671875 15.6171875 C9.83044703 18.16505988 9.83044703 18.16505988 12 20 C15.13413156 26.91523955 16.07515787 34.49735946 17.1875 41.9375 C17.36474609 43.07251953 17.54199219 44.20753906 17.72460938 45.37695312 C19 53.63498431 19 53.63498431 19 56 C20.32 56.33 21.64 56.66 23 57 C23 56.01 23 55.02 23 54 C23.66 54 24.32 54 25 54 C25.33 53.01 25.66 52.02 26 51 C26.33 51.66 26.66 52.32 27 53 C23.04 58.94 23.04 58.94 19 65 C17.515 64.505 17.515 64.505 16 64 C15.96036133 63.42258057 15.92072266 62.84516113 15.87988281 62.25024414 C14.44395534 42.22460925 10.68348867 25.50156716 2.85058594 7.01367188 C1.86832547 4.68827452 0.92597136 2.34833973 0 0 Z " fill="#E7B02F" transform="translate(412,312)"/>
<path d="M0 0 C1.98 0 3.96 0 6 0 C6 0.66 6 1.32 6 2 C7.65 2.33 9.3 2.66 11 3 C11 3.99 11 4.98 11 6 C11.639375 6.103125 12.27875 6.20625 12.9375 6.3125 C13.618125 6.539375 14.29875 6.76625 15 7 C15.33 7.99 15.66 8.98 16 10 C18.97 10.495 18.97 10.495 22 11 C22.33 12.32 22.66 13.64 23 15 C23.68320313 15.0928125 24.36640625 15.185625 25.0703125 15.28125 C29.28160532 16.31442051 32.87596936 18.40602499 36.65234375 20.47265625 C40.79708466 22.64978389 44.39316208 23.3996101 49 24 C49.495 24.99 49.495 24.99 50 26 C53.02934491 26.65772428 53.02934491 26.65772428 56 27 C56.495 28.485 56.495 28.485 57 30 C59.33288824 31.14603135 61.5837531 32.13262546 64 33.0625 C70.87431193 35.74862385 70.87431193 35.74862385 72 38 C12.84394602 19.26591903 12.84394602 19.26591903 0 0 Z " fill="#DEB43F" transform="translate(181,169)"/>
<path d="M0 0 C10.46142983 7.62625674 14.67974107 20.77222546 16.71875 33.109375 C18.6893241 46.57445468 18.18599489 59.94129825 14 73 C13.01 73.99 13.01 73.99 12 75 C12 71.37 12 67.74 12 64 C12.66 64 13.32 64 14 64 C14.0590068 59.91672939 14.09392935 55.83357118 14.125 51.75 C14.14175781 50.61046875 14.15851563 49.4709375 14.17578125 48.296875 C14.2140517 41.56127538 13.74987577 35.22661767 12.49414062 28.60546875 C11.82640852 25.08469945 11.41063133 21.55880488 11 18 C10.01 17.67 9.02 17.34 8 17 C7.20986598 15.32096521 6.43024062 13.63426661 5.75390625 11.90625 C4.67642362 9.18183797 3.3325444 6.60715209 2 4 C1.33333333 2.66666667 0.66666667 1.33333333 0 0 Z " fill="#B91B1F" transform="translate(329,345)"/>
<path d="M0 0 C0.92056717 2.55713104 0.98036395 4.12289457 0.546875 6.8359375 C-1.78163641 22.08124664 -1.99526993 40.23686693 5.1328125 54.22265625 C6 56 6 56 6 58 C6.66 58.33 7.32 58.66 8 59 C8.59355614 61.64860427 8.74209269 64.29197322 9 67 C-1.14997742 57.66891672 -3.34549419 41.58383787 -4.16015625 28.41015625 C-4.45384978 18.89703963 -3.01567391 9.04702172 0 0 Z " fill="#E9B43F" transform="translate(156,85)"/>
<path d="M0 0 C0.66 0 1.32 0 2 0 C2 1.65 2 3.3 2 5 C1.01 5 0.02 5 -1 5 C-1.22042969 5.81791016 -1.22042969 5.81791016 -1.4453125 6.65234375 C-3.26056523 12.75534862 -5.85253033 18.11314855 -10 23 C-10.66 23 -11.32 23 -12 23 C-11.938125 24.1446875 -11.938125 24.1446875 -11.875 25.3125 C-12 28 -12 28 -14 31 C-14.042721 32.66611905 -14.04063832 34.33382885 -14 36 C-14.29044914 37.34332728 -14.60955794 38.68225804 -15 40 C-15.66 40 -16.32 40 -17 40 C-17.66 40.66 -18.32 41.32 -19 42 C-19.66 42.66 -20.32 43.32 -21 44 C-21.66 44 -22.32 44 -23 44 C-18.77116164 29.19906574 -10.14220392 11.74054551 0 0 Z " fill="#D40612" transform="translate(68,126)"/>
<path d="M0 0 C0.90105469 0.11085938 1.80210937 0.22171875 2.73046875 0.3359375 C3.76107422 0.47902344 3.76107422 0.47902344 4.8125 0.625 C4.8125 1.615 4.8125 2.605 4.8125 3.625 C6.29363281 3.71587891 6.29363281 3.71587891 7.8046875 3.80859375 C9.08601563 3.89238281 10.36734375 3.97617187 11.6875 4.0625 C12.96367187 4.14371094 14.23984375 4.22492188 15.5546875 4.30859375 C18.8125 4.625 18.8125 4.625 20.8125 5.625 C22.51613822 5.85122081 24.22578701 6.03388473 25.9375 6.1875 C26.84757812 6.27128906 27.75765625 6.35507812 28.6953125 6.44140625 C29.39398438 6.50199219 30.09265625 6.56257813 30.8125 6.625 C30.8125 7.285 30.8125 7.945 30.8125 8.625 C32.03151001 8.61714478 32.03151001 8.61714478 33.27514648 8.60913086 C36.93342322 8.58843006 40.59168767 8.57536197 44.25 8.5625 C45.52939453 8.55412109 46.80878906 8.54574219 48.12695312 8.53710938 C49.94936523 8.53227539 49.94936523 8.53227539 51.80859375 8.52734375 C52.93450928 8.52210693 54.0604248 8.51687012 55.22045898 8.51147461 C57.8125 8.625 57.8125 8.625 58.8125 9.625 C60.99889453 9.69758946 63.18750389 9.70873783 65.375 9.6875 C66.57253906 9.67847656 67.77007812 9.66945313 69.00390625 9.66015625 C70.39416016 9.64275391 70.39416016 9.64275391 71.8125 9.625 C68.24076323 11.84811152 65.30478371 11.8699261 61.1484375 11.85546875 C59.86195313 11.85353516 58.57546875 11.85160156 57.25 11.84960938 C56.25033203 11.84030396 56.25033203 11.84030396 55.23046875 11.83081055 C53.18737377 11.81249887 51.14473118 11.81030142 49.1015625 11.81054688 C39.09315634 11.76532817 39.09315634 11.76532817 36.8125 10.625 C35.33625232 10.38390246 33.85279742 10.18607014 32.3671875 10.01171875 C31.46234619 9.90013428 30.55750488 9.7885498 29.62524414 9.67358398 C28.65578857 9.55442627 27.68633301 9.43526855 26.6875 9.3125 C14.7084808 7.76641053 3.408224 4.9571046 -8.1875 1.625 C-4.73535147 -0.67643236 -3.95270676 -0.51333854 0 0 Z " fill="#CC0C11" transform="translate(192.1875,459.375)"/>
<path d="M0 0 C0.33 0 0.66 0 1 0 C5.82125917 30.13286979 2.65576913 59.67810165 -5 89 C-5.33 89 -5.66 89 -6 89 C-6.05447047 87.58376784 -6.09300508 86.16691809 -6.125 84.75 C-6.14820313 83.96109375 -6.17140625 83.1721875 -6.1953125 82.359375 C-5.97735262 79.72641959 -5.18465833 78.34384014 -4 76 C-3.41102956 73.59902958 -2.89951415 71.17859796 -2.4375 68.75 C-2.18871094 67.48671875 -1.93992187 66.2234375 -1.68359375 64.921875 C0.57916228 50.43270955 0.12566032 35.61506059 0.0625 21 C0.05747043 18.95312611 0.05291012 16.906251 0.04882812 14.859375 C0.03794843 9.90621945 0.0207658 4.95312356 0 0 Z " fill="#E8B847" transform="translate(467,221)"/>
<path d="M0 0 C0 0.66 0 1.32 0 2 C-3.30341823 4.20227882 -6.18443389 4.97797336 -10 6 C-10.99 6.33 -11.98 6.66 -13 7 C-13.33 7.99 -13.66 8.98 -14 10 C-15.91626613 12.62225892 -16.9322234 12.98538152 -20.1875 13.6875 C-21.115625 13.790625 -22.04375 13.89375 -23 14 C-23.33 15.32 -23.66 16.64 -24 18 C-24.99 18 -25.98 18 -27 18 C-27 18.66 -27 19.32 -27 20 C-27.763125 20.4125 -28.52625 20.825 -29.3125 21.25 C-32.62663597 23.40804203 -33.43538561 25.42373855 -35 29 C-35.66 29.99 -36.32 30.98 -37 32 C-37.66 32 -38.32 32 -39 32 C-39.2475 32.66 -39.495 33.32 -39.75 34 C-41.31817045 37.76360907 -43.14505046 41.3711424 -45 45 C-45.66 45 -46.32 45 -47 45 C-42.98145428 29.19372016 -30.62077635 15.85374015 -16.88671875 7.60546875 C-3.21167883 0 -3.21167883 0 0 0 Z " fill="#E9B431" transform="translate(204,39)"/>
<path d="M0 0 C4.28627472 1.35839458 8.34303503 2.9725945 12.4375 4.828125 C13.03949219 5.09961365 13.64148438 5.37110229 14.26171875 5.65081787 C16.17573656 6.51446156 18.08797474 7.38195507 20 8.25 C22.49919628 9.38199272 24.99922995 10.51211336 27.5 11.640625 C28.42039063 12.05616638 28.42039063 12.05616638 29.359375 12.48010254 C35.8685473 15.40846248 42.42912661 18.21320046 49 21 C43.20218535 22.93260488 36.52627473 19.1311154 31 17 C29.50052734 16.43609575 28.00054309 15.87354962 26.5 15.3125 C25.345 14.879375 24.19 14.44625 23 14 C23 13.34 23 12.68 23 12 C20.69 12 18.38 12 16 12 C15.79375 11.38125 15.5875 10.7625 15.375 10.125 C13.42841258 7.11663762 11.39494511 6.93194572 8 6 C6.32836805 5.34588315 4.65984798 4.68346682 3 4 C3 3.34 3 2.68 3 2 C2.01 2 1.02 2 0 2 C0 1.34 0 0.68 0 0 Z " fill="#B61A1E" transform="translate(164,261)"/>
<path d="M0 0 C1.20903692 3.62711076 0.77417155 4.1800991 -0.875 7.5 C-6.15486573 17.49247315 -14.04296298 26.14253309 -23 33 C-23.66 33 -24.32 33 -25 33 C-25 32.01 -25 31.02 -25 30 C-24.34 30 -23.68 30 -23 30 C-23 29.34 -23 28.68 -23 28 C-22.01 28 -21.02 28 -20 28 C-19.71125 27.0925 -19.4225 26.185 -19.125 25.25 C-17.52260365 20.62085498 -16.43340699 17.47749214 -12 15 C-9.75 15.3125 -9.75 15.3125 -8 16 C-8.12375 14.6078125 -8.12375 14.6078125 -8.25 13.1875 C-8.1675 12.135625 -8.085 11.08375 -8 10 C-6.125 8.4375 -6.125 8.4375 -4 7 C-2.73152315 4.41501488 -2.73152315 4.41501488 -2 2 C-1.34 2 -0.68 2 0 2 C0 1.34 0 0.68 0 0 Z " fill="#C2090C" transform="translate(340,420)"/>
<path d="M0 0 C10.40921966 8.63743759 18.88454832 18.24174695 27 29 C27.41797852 29.55139648 27.83595703 30.10279297 28.26660156 30.67089844 C35 39.58898305 35 39.58898305 35 42 C32.03 41.505 32.03 41.505 29 41 C28.7525 39.948125 28.505 38.89625 28.25 37.8125 C27.19982567 34.16647222 25.71644025 31.71644025 23 29 C20.87053397 28.13034494 20.87053397 28.13034494 19 28 C19 26.02 19 24.04 19 22 C18.34 22 17.68 22 17 22 C16.67 21.01 16.34 20.02 16 19 C15.01 18.34 14.02 17.68 13 17 C12.55011719 16.24074219 12.10023438 15.48148438 11.63671875 14.69921875 C9.727316 11.55029918 7.47359182 9.35071312 4.8125 6.8125 C3.17120432 5.24634232 1.55675401 3.65021767 0 2 C0 1.34 0 0.68 0 0 Z " fill="#EAB02C" transform="translate(399,91)"/>
<path d="M0 0 C6.38661539 8.00609922 9.27589533 18.24083871 12.3125 27.875 C12.67150391 28.97585937 13.03050781 30.07671875 13.40039062 31.2109375 C13.73876953 32.273125 14.07714844 33.3353125 14.42578125 34.4296875 C14.72911377 35.38085449 15.03244629 36.33202148 15.3449707 37.31201172 C15.99633771 39.98497135 16.1252194 42.26133063 16 45 C15.34 45 14.68 45 14 45 C13.505 43.515 13.505 43.515 13 42 C12.34 41.34 11.68 40.68 11 40 C10.64159778 37.67038557 10.31151288 35.33634657 10 33 C9.06858015 29.1938414 9.06858015 29.1938414 7 26 C6.8669073 24.64836973 6.76889008 23.29322627 6.6875 21.9375 C6.19406093 16.93148108 4.40934535 13.3425355 2 9 C0.39411351 5.46704973 0 3.99583975 0 0 Z " fill="#EAB127" transform="translate(447,156)"/>
<path d="M0 0 C0.33 0 0.66 0 1 0 C1.09796875 1.0415625 1.1959375 2.083125 1.296875 3.15625 C3.02039811 20.15354691 6.88464194 36.75774807 14.265625 52.2578125 C15 54 15 54 15 56 C14.01 56 13.02 56 12 56 C11.49384702 54.73160474 10.99530901 53.46016898 10.5 52.1875 C10.2215625 51.47980469 9.943125 50.77210938 9.65625 50.04296875 C9 48 9 48 9 45 C8.34 45 7.68 45 7 45 C7 43.35 7 41.7 7 40 C6.34 40 5.68 40 5 40 C4.94392578 39.12988281 4.94392578 39.12988281 4.88671875 38.2421875 C4.45255565 33.04062321 4.45255565 33.04062321 2.5 28.25 C-1.35866807 19.88955251 -0.14681851 9.0538083 0 0 Z " fill="#B0262A" transform="translate(70,132)"/>
<path d="M0 0 C0.33 0.99 0.66 1.98 1 3 C2.32 2.67 3.64 2.34 5 2 C5 2.66 5 3.32 5 4 C4.34 4 3.68 4 3 4 C3 4.66 3 5.32 3 6 C4.65 5.34 6.3 4.68 8 4 C8.12375 4.969375 8.2475 5.93875 8.375 6.9375 C8.58125 7.948125 8.7875 8.95875 9 10 C9.66 10.33 10.32 10.66 11 11 C11 11.66 11 12.32 11 13 C11.66 13 12.32 13 13 13 C13 14.65 13 16.3 13 18 C13.66 18 14.32 18 15 18 C15.66 20.64 16.32 23.28 17 26 C12.63622932 22.04533282 9.36601981 17.5140715 5.96484375 12.71875 C4.63051417 10.87244108 3.24079378 9.06517668 1.8046875 7.296875 C0.06854508 5.0872392 -0.70323546 3.76980238 -1 1 C-0.67 0.67 -0.34 0.34 0 0 Z " fill="#EEB21A" transform="translate(391,278)"/>
<path d="M0 0 C0.99 0.33 1.98 0.66 3 1 C3 8.26 3 15.52 3 23 C1 19 1 19 1 15 C0.34 15 -0.32 15 -1 15 C-1.33 15.66 -1.66 16.32 -2 17 C-2.33 15.68 -2.66 14.36 -3 13 C-3.66 13.66 -4.32 14.32 -5 15 C-5 11.50304934 -4.7097493 9.58628754 -3.625 6.375 C-3.36976562 5.59898437 -3.11453125 4.82296875 -2.8515625 4.0234375 C-2 2 -2 2 0 0 Z " fill="#D40307" transform="translate(68,129)"/>
<path d="M0 0 C4.18041516 0.63735312 7.55437301 2.04700325 11.359375 3.87109375 C11.9492218 4.15348404 12.5390686 4.43587433 13.14678955 4.7268219 C14.38518935 5.32165072 15.62221243 5.91935345 16.85791016 6.51977539 C18.75398163 7.43943122 20.655858 8.34618031 22.55859375 9.25195312 C23.763389 9.83256999 24.96782914 10.41392444 26.171875 10.99609375 C27.2659668 11.52388428 28.36005859 12.0516748 29.48730469 12.59545898 C32 14 32 14 33 16 C28.38 15.34 23.76 14.68 19 14 C19 12.68 19 11.36 19 10 C17.68 10 16.36 10 15 10 C15 9.34 15 8.68 15 8 C14.28457031 7.72414063 13.56914062 7.44828125 12.83203125 7.1640625 C10.04261145 6.01751478 7.37709642 4.73772885 4.6875 3.375 C3.80449219 2.92898438 2.92148437 2.48296875 2.01171875 2.0234375 C1.34785156 1.68570312 0.68398438 1.34796875 0 1 C0 0.67 0 0.34 0 0 Z " fill="#BA1318" transform="translate(262,303)"/>
<path d="M0 0 C0.33 0 0.66 0 1 0 C1.34371012 8.45908784 1.15691441 17.70217738 -2.0703125 25.62890625 C-3.02348869 28.05990603 -3.16152786 29.55064967 -3 32.125 C-3 36 -3 36 -5 39 C-5.70497782 25.15110232 -3.92005814 13.28619707 0 0 Z " fill="#C60F14" transform="translate(38,188)"/>
<path d="M0 0 C1.38349388 0.00212242 1.38349388 0.00212242 2.79493713 0.00428772 C5.71879423 0.00985119 8.6425726 0.02239683 11.56640625 0.03515625 C13.5579416 0.04017597 15.54947815 0.04473805 17.54101562 0.04882812 C22.40367581 0.05980863 27.26627772 0.07704786 32.12890625 0.09765625 C32.12890625 0.42765625 32.12890625 0.75765625 32.12890625 1.09765625 C30.36015137 1.11953003 30.36015137 1.11953003 28.55566406 1.1418457 C24.12715249 1.2003797 19.69912051 1.27760281 15.27099609 1.36010742 C13.36450051 1.39310013 11.45791326 1.42120944 9.55126953 1.4440918 C-4.65960341 1.56774596 -4.65960341 1.56774596 -18.53540039 4.40454102 C-20.8935822 5.10432968 -23.1164351 5.45840175 -25.55859375 5.72265625 C-28.71242454 5.7312947 -28.71242454 5.7312947 -29.87109375 7.09765625 C-31.5372649 7.13829457 -33.2049747 7.14037725 -34.87109375 7.09765625 C-32.08857319 4.31513569 -28.89968709 3.91642996 -25.18359375 3.03515625 C-24.48814453 2.86177734 -23.79269531 2.68839844 -23.07617188 2.50976562 C-15.34676353 0.6261283 -7.93804175 -0.04642183 0 0 Z " fill="#E9B747" transform="translate(239.87109375,31.90234375)"/>
<path d="M0 0 C1.75 2.5625 1.75 2.5625 3 5 C4.98 4.67 6.96 4.34 9 4 C9 5.32 9 6.64 9 8 C9.66 8.66 10.32 9.32 11 10 C11 11.32 11 12.64 11 14 C6.73087107 12.56140464 3.76608699 10.43185127 0.3125 7.5625 C-0.64011719 6.78003906 -1.59273438 5.99757813 -2.57421875 5.19140625 C-5 3 -5 3 -7 0 C-3.84150454 -1.05283182 -2.969245 -1.29904469 0 0 Z " fill="#C30A0F" transform="translate(114,418)"/>
<path d="M0 0 C3.61549002 3.02520593 7.09919868 6.04662369 10.375 9.4375 C14.25062945 13.39258427 18.5686303 16.69405753 23 20 C21.68 20.33 20.36 20.66 19 21 C19 20.34 19 19.68 19 19 C17.35 18.34 15.7 17.68 14 17 C14 16.34 14 15.68 14 15 C13.0925 14.731875 12.185 14.46375 11.25 14.1875 C5.00726309 11.90649998 2.89872317 8.79744635 0 3 C0 2.01 0 1.02 0 0 Z " fill="#AD1315" transform="translate(105,218)"/>
<path d="M0 0 C8.57142857 -0.28571429 8.57142857 -0.28571429 12 2 C12 2.66 12 3.32 12 4 C12.99773437 4.12503906 13.99546875 4.25007813 15.0234375 4.37890625 C18.9680504 4.94256389 22.77943542 5.90992871 26.625 6.9375 C32.88927026 8.57363524 39.08686523 9.72520198 45.5234375 10.5078125 C48 11 48 11 50 13 C40.47954446 12.19856833 31.42915457 10.54057782 22.1875 8.125 C20.77585571 7.75834229 20.77585571 7.75834229 19.33569336 7.38427734 C12.7490364 5.61194321 6.37439397 3.42296552 0 1 C0 0.67 0 0.34 0 0 Z " fill="#9F1C1E" transform="translate(172,457)"/>
<path d="M0 0 C6.2193838 2.72277171 11.79952295 6.0704911 17.3125 10 C18.19156006 10.62237549 18.19156006 10.62237549 19.08837891 11.25732422 C22.73583421 13.90425143 25.89270858 16.73530357 29 20 C24.45515151 19.45894661 20.86133967 18.51436071 17 16 C16.375 13.4375 16.375 13.4375 16 11 C14.27735357 9.98037961 14.27735357 9.98037961 12 9 C9.90712186 7.85054361 7.82438688 6.68250073 5.75 5.5 C4.67234375 4.8915625 3.5946875 4.283125 2.484375 3.65625 C1.25460937 2.83640625 1.25460937 2.83640625 0 2 C0 1.34 0 0.68 0 0 Z " fill="#E6B237" transform="translate(357,60)"/>
<path d="M0 0 C3.86790856 7.23964522 4.32599647 14.86287546 4.25 22.9375 C4.25773437 23.78634766 4.26546875 24.63519531 4.2734375 25.50976562 C4.27085937 26.31994141 4.26828125 27.13011719 4.265625 27.96484375 C4.26336914 28.6930835 4.26111328 29.42132324 4.25878906 30.17163086 C4 32 4 32 2 34 C0.94642622 26.84632256 0.67954401 19.72164104 0.4375 12.5 C0.39431641 11.29601562 0.35113281 10.09203125 0.30664062 8.8515625 C0.20126832 5.90113807 0.09914097 2.95063929 0 0 Z " fill="#EDB52C" transform="translate(463,201)"/>
<path d="M0 0 C1.98 0 3.96 0 6 0 C6 0.66 6 1.32 6 2 C7.65 2.33 9.3 2.66 11 3 C11 3.99 11 4.98 11 6 C11.639375 6.103125 12.27875 6.20625 12.9375 6.3125 C13.618125 6.539375 14.29875 6.76625 15 7 C15.33 7.99 15.66 8.98 16 10 C18.97 10.495 18.97 10.495 22 11 C22.33 11.99 22.66 12.98 23 14 C16.74706743 12.78396007 12.61556211 10.82393889 7.5625 7 C6.93923828 6.54882812 6.31597656 6.09765625 5.67382812 5.6328125 C1.15408509 2.30817018 1.15408509 2.30817018 0 0 Z " fill="#E9B434" transform="translate(181,169)"/>
<path d="M0 0 C2 3 2 3 2 7 C2.99 7.33 3.98 7.66 5 8 C5 8.66 5 9.32 5 10 C5.66 10 6.32 10 7 10 C7 9.01 7 8.02 7 7 C7.99 7 8.98 7 10 7 C10.33 6.01 10.66 5.02 11 4 C11.33 3.01 11.66 2.02 12 1 C12.99 1.33 13.98 1.66 15 2 C10.64784547 9.95393759 10.64784547 9.95393759 8 12 C7.34 12 6.68 12 6 12 C6 12.99 6 13.98 6 15 C4.68 14.67 3.36 14.34 2 14 C1.66179834 12.4176994 1.32964061 10.83410625 1 9.25 C0.814375 8.36828125 0.62875 7.4865625 0.4375 6.578125 C0 4 0 4 0 0 Z " fill="#F2B117" transform="translate(429,354)"/>
<path d="M0 0 C4.5056841 0.66847336 8.43731963 2.33955736 12.5625 4.1875 C13.26052734 4.49631104 13.95855469 4.80512207 14.67773438 5.12329102 C20.8823881 7.89342808 26.96380379 10.87901219 33 14 C30.18838299 15.14868913 29.16371342 15.06728598 26.30078125 13.890625 C25.31464844 13.34921875 24.32851563 12.8078125 23.3125 12.25 C18.89196424 9.91574148 14.66518725 8.11730926 9.90234375 6.64453125 C5.88341601 5.28288222 2.82634643 3.12385658 0 0 Z " fill="#E1B43E" transform="translate(324,45)"/>
<path d="M0 0 C0.763125 0.309375 1.52625 0.61875 2.3125 0.9375 C4.18789677 1.67893593 6.08684652 2.36228217 8 3 C8 3.66 8 4.32 8 5 C9.134375 5.12375 10.26875 5.2475 11.4375 5.375 C12.613125 5.58125 13.78875 5.7875 15 6 C15.33 6.66 15.66 7.32 16 8 C18.52733235 8.65555119 18.52733235 8.65555119 21 9 C21 9.66 21 10.32 21 11 C21.66 11 22.32 11 23 11 C23 11.66 23 12.32 23 13 C23.99 13.33 24.98 13.66 26 14 C23 15 23 15 21.08642578 14.27490234 C20.3798584 13.88254395 19.67329102 13.49018555 18.9453125 13.0859375 C18.16542969 12.65410156 17.38554687 12.22226562 16.58203125 11.77734375 C15.77121094 11.31457031 14.96039063 10.85179687 14.125 10.375 C13.32191406 9.93542969 12.51882812 9.49585938 11.69140625 9.04296875 C7.11736671 6.47336828 3.49523152 3.91975357 0 0 Z " fill="#A21418" transform="translate(125,432)"/>
<path d="M0 0 C0.33 0.66 0.66 1.32 1 2 C0.67 2.66 0.34 3.32 0 4 C1.32 4.33 2.64 4.66 4 5 C4 5.66 4 6.32 4 7 C4.96421875 7.12117187 5.9284375 7.24234375 6.921875 7.3671875 C8.18515625 7.53476563 9.4484375 7.70234375 10.75 7.875 C12.62945312 8.11863281 12.62945312 8.11863281 14.546875 8.3671875 C17.48616408 8.9058355 19.47107147 9.48008841 22 11 C22 11.66 22 12.32 22 13 C22.99 13.33 23.98 13.66 25 14 C16.17066523 13.0189628 5.43421628 11.43421628 -1 5 C-3.59915538 3.80972016 -3.59915538 3.80972016 -6 3 C-4 2 -2 1 0 0 Z " fill="#F1B31E" transform="translate(251,200)"/>
<path d="M0 0 C0.99 0 1.98 0 3 0 C3.6331684 9.01134307 4.1723784 17.95971078 4 27 C-0.5060034 18.99143094 -0.31699405 8.94627653 0 0 Z " fill="#B3161A" transform="translate(31,272)"/>
<path d="M0 0 C3.83977684 0.64047355 7.15596714 1.77177221 10.73828125 3.28515625 C12.33833008 3.95708008 12.33833008 3.95708008 13.97070312 4.64257812 C15.07349609 5.11115234 16.17628906 5.57972656 17.3125 6.0625 C18.43462891 6.53494141 19.55675781 7.00738281 20.71289062 7.49414062 C23.47704277 8.65861323 26.239304 9.82736272 29 11 C29 11.33 29 11.66 29 12 C27.54077307 11.88590407 26.08259402 11.75834456 24.625 11.625 C23.81289063 11.55539062 23.00078125 11.48578125 22.1640625 11.4140625 C20 11 20 11 18 9 C17.195625 8.731875 16.39125 8.46375 15.5625 8.1875 C12.33189359 7.1106312 9.29866887 5.87780336 6.1875 4.5 C5.23230469 4.0771875 4.27710938 3.654375 3.29296875 3.21875 C1 2 1 2 0 0 Z " fill="#A51517" transform="translate(233,291)"/>
<path d="M0 0 C3.16991935 2.73268909 5.03290671 6.21646737 7.0625 9.8125 C7.41376953 10.41642578 7.76503906 11.02035156 8.12695312 11.64257812 C10.22812443 15.33253681 11.79703214 18.92985486 13 23 C12.01 22.34 11.02 21.68 10 21 C10 20.34 10 19.68 10 19 C9.34 19 8.68 19 8 19 C8 18.34 8 17.68 8 17 C7.34 17 6.68 17 6 17 C5.18167278 15.10667466 4.37057732 13.21022267 3.5625 11.3125 C3.11003906 10.25675781 2.65757812 9.20101562 2.19140625 8.11328125 C1.14552545 5.38027471 0.46479252 2.87957663 0 0 Z " fill="#E9B235" transform="translate(434,133)"/>
<path d="M0 0 C3.57589067 0.55013703 7.13727459 1.17887737 10.6875 1.875 C11.43386719 2.01679688 12.18023437 2.15859375 12.94921875 2.3046875 C15 3 15 3 16.43359375 4.4453125 C18.52842474 6.52447143 20.5845031 7.08257636 23.375 8 C27.26276926 9.28521298 30.54657523 10.78980815 34 13 C33.34 13.33 32.68 13.66 32 14 C29.54279823 13.16153345 27.19436879 12.2571299 24.8046875 11.25390625 C24.09724396 10.96394272 23.38980042 10.67397919 22.66091919 10.37522888 C20.3958858 9.44489094 18.13547753 8.50384626 15.875 7.5625 C14.34273984 6.93093193 12.81019115 6.30006335 11.27734375 5.66992188 C7.51482979 4.12138655 3.75642994 2.56323286 0 1 C0 0.67 0 0.34 0 0 Z " fill="#E3B53E" transform="translate(263,211)"/>
<path d="M0 0 C6.07328688 -0.50610724 9.77228537 0.95842058 15 4 C15 4.66 15 5.32 15 6 C16.4540625 6.433125 16.4540625 6.433125 17.9375 6.875 C21 8 21 8 22 10 C16.93959451 9.36111113 12.71988466 7.13720723 8.1875 4.9375 C7.00510742 4.37192383 7.00510742 4.37192383 5.79882812 3.79492188 C3.86347527 2.86829839 1.93140451 1.93482533 0 1 C0 0.67 0 0.34 0 0 Z " fill="#B9090D" transform="translate(150,447)"/>
<path d="M0 0 C-8.58260843 5.72173895 -19.95008305 7.86109573 -30 6 C-30 5.67 -30 5.34 -30 5 C-28.92685547 4.83564453 -28.92685547 4.83564453 -27.83203125 4.66796875 C-21.10356184 3.59733261 -14.5197357 2.24037994 -7.91015625 0.5859375 C-5.17826791 0.03589287 -2.77585723 -0.11246567 0 0 Z " fill="#B3181C" transform="translate(297,463)"/>
<path d="M0 0 C0.33 0 0.66 0 1 0 C1.1875 2.3125 1.1875 2.3125 1 5 C0.30197266 5.62261719 0.30197266 5.62261719 -0.41015625 6.2578125 C-2.70624494 8.77391951 -2.9524428 11.25514453 -3.625 14.5625 C-4.93142857 20.86285714 -4.93142857 20.86285714 -6 23 C-6.22467831 24.53668865 -6.40796805 26.07968054 -6.5625 27.625 C-6.64628906 28.44226563 -6.73007813 29.25953125 -6.81640625 30.1015625 C-6.87699219 30.72804688 -6.93757812 31.35453125 -7 32 C-7.33 32 -7.66 32 -8 32 C-8.14715692 24.6094524 -7.70776992 17.35575165 -7 10 C-6.01 10 -5.02 10 -4 10 C-3.8453125 9.195625 -3.8453125 9.195625 -3.6875 8.375 C-2.81907303 5.37497956 -1.44379704 2.7620465 0 0 Z " fill="#F6B515" transform="translate(163,74)"/>
<path d="M0 0 C1.32 0.33 2.64 0.66 4 1 C4 1.66 4 2.32 4 3 C5.32 3.33 6.64 3.66 8 4 C8 4.99 8 5.98 8 7 C8.66 7 9.32 7 10 7 C11.4375 8.3125 11.4375 8.3125 13 10 C13.556875 10.495 14.11375 10.99 14.6875 11.5 C16 13 16 13 16 16 C12.19827839 14.42626408 9.75658012 12.02378358 6.875 9.125 C6.00617188 8.26132813 5.13734375 7.39765625 4.2421875 6.5078125 C2.31482046 4.35211626 1.09484839 2.64485847 0 0 Z " fill="#E4AE32" transform="translate(165,153)"/>
<path d="M0 0 C0.66 0 1.32 0 2 0 C2 1.65 2 3.3 2 5 C1.01 5 0.02 5 -1 5 C-1.18175781 5.61488281 -1.36351563 6.22976562 -1.55078125 6.86328125 C-1.80214844 7.67152344 -2.05351563 8.47976562 -2.3125 9.3125 C-2.67794922 10.51326172 -2.67794922 10.51326172 -3.05078125 11.73828125 C-4.04182023 14.09964573 -5.08074943 15.33879993 -7 17 C-7.66 16.67 -8.32 16.34 -9 16 C-9.33 16.99 -9.66 17.98 -10 19 C-10.33 18.34 -10.66 17.68 -11 17 C-10.21142578 15.32006836 -10.21142578 15.32006836 -8.9453125 13.33984375 C-8.49542969 12.62892578 -8.04554687 11.91800781 -7.58203125 11.18554688 C-6.86080078 10.07276367 -6.86080078 10.07276367 -6.125 8.9375 C-5.65191406 8.19177734 -5.17882813 7.44605469 -4.69140625 6.67773438 C-1.19666353 1.19666353 -1.19666353 1.19666353 0 0 Z " fill="#C11A26" transform="translate(68,126)"/>
<path d="M0 0 C0.99 0.33 1.98 0.66 3 1 C3 1.66 3 2.32 3 3 C3.66 3 4.32 3 5 3 C5 4.65 5 6.3 5 8 C5.99 8 6.98 8 8 8 C8.18175781 9.04800781 8.18175781 9.04800781 8.3671875 10.1171875 C8.53476562 11.02726562 8.70234375 11.93734375 8.875 12.875 C9.11863281 14.23238281 9.11863281 14.23238281 9.3671875 15.6171875 C9.83044703 18.16505988 9.83044703 18.16505988 12 20 C11.67 20.99 11.34 21.98 11 23 C8.64602854 20.87041344 7.38775206 19.03333908 6.2109375 16.09375 C5.90929687 15.34996094 5.60765625 14.60617187 5.296875 13.83984375 C4.99265625 13.06769531 4.6884375 12.29554688 4.375 11.5 C4.06304687 10.72785156 3.75109375 9.95570313 3.4296875 9.16015625 C2.20872383 6.12353541 1.03531744 3.10595231 0 0 Z " fill="#E8B126" transform="translate(412,312)"/>
<path d="M0 0 C5.99142879 -0.3209694 11.50032547 0.29104574 17.375 1.375 C18.07689453 1.50108643 18.77878906 1.62717285 19.50195312 1.75708008 C22.90325613 2.41556905 25.07867992 3.05245328 28 5 C23.70781983 4.69430564 19.41637381 4.37929775 15.125 4.0625 C13.90167969 3.97548828 12.67835938 3.88847656 11.41796875 3.79882812 C10.25136719 3.71181641 9.08476562 3.62480469 7.8828125 3.53515625 C6.80402832 3.456604 5.72524414 3.37805176 4.61376953 3.29711914 C2 3 2 3 0 2 C0 1.34 0 0.68 0 0 Z " fill="#E6B742" transform="translate(272,33)"/>
<path d="M0 0 C0.33 0.66 0.66 1.32 1 2 C1.66 2 2.32 2 3 2 C3 3.98 3 5.96 3 8 C3.66 8 4.32 8 5 8 C5 8.99 5 9.98 5 11 C5.66 11 6.32 11 7 11 C7.06058594 11.59167969 7.12117188 12.18335938 7.18359375 12.79296875 C7.62012371 16.90978208 8.08671346 20.95544533 9 25 C5.7208285 21.29739194 4.39290417 17.0968299 2.8125 12.5 C2.40354492 11.36111328 2.40354492 11.36111328 1.98632812 10.19921875 C0.68840366 6.48435725 0 4.02412659 0 0 Z " fill="#AA1317" transform="translate(38,311)"/>
<path d="M0 0 C0.33 0.99 0.66 1.98 1 3 C1.66 3 2.32 3 3 3 C4.17094005 5.7899439 5.33690927 8.58178597 6.5 11.375 C7.00080078 12.56609375 7.00080078 12.56609375 7.51171875 13.78125 C7.82753906 14.54179687 8.14335938 15.30234375 8.46875 16.0859375 C8.76201172 16.7876709 9.05527344 17.4894043 9.35742188 18.21240234 C10 20 10 20 10 22 C9.01 22 8.02 22 7 22 C6.49384702 20.73160474 5.99530901 19.46016898 5.5 18.1875 C5.2215625 17.47980469 4.943125 16.77210938 4.65625 16.04296875 C4 14 4 14 4 11 C3.34 11 2.68 11 2 11 C2 9.35 2 7.7 2 6 C1.34 6 0.68 6 0 6 C0 4.02 0 2.04 0 0 Z " fill="#B21316" transform="translate(75,166)"/>
<path d="M0 0 C6.45353615 2.05764921 12.7361263 4.42383482 19 7 C19 7.33 19 7.66 19 8 C17.02 8 15.04 8 13 8 C13 7.34 13 6.68 13 6 C11.4221875 6.0928125 11.4221875 6.0928125 9.8125 6.1875 C5.80886883 5.99060011 4.10026113 5.46197207 1 3 C0.67 2.01 0.34 1.02 0 0 Z " fill="#B11419" transform="translate(214,283)"/>
<path d="M0 0 C4.3069376 3.44555008 4.98418637 6.85052894 6 12 C6.17015625 12.65484375 6.3403125 13.3096875 6.515625 13.984375 C7.30925613 17.28690452 7.60665017 20.62842999 8 24 C5.18140613 21.18140613 4.09076803 18.6905546 3.875 14.671875 C3.875 12.44437197 3.91271865 10.22567441 4 8 C3.34 8 2.68 8 2 8 C2 7.01 2 6.02 2 5 C1.34 5 0.68 5 0 5 C0 3.35 0 1.7 0 0 Z " fill="#CA060B" transform="translate(41,314)"/>
<path d="M0 0 C7.46089399 6.19095459 15.02998172 12.5725777 20 21 C13.51512915 17.86937269 13.51512915 17.86937269 11.63671875 14.69921875 C9.727316 11.55029918 7.47359182 9.35071312 4.8125 6.8125 C3.17120432 5.24634232 1.55675401 3.65021767 0 2 C0 1.34 0 0.68 0 0 Z " fill="#DCB342" transform="translate(399,91)"/>
<path d="M0 0 C4.07014791 2.91529625 6.39372709 5.79075933 8.875 10.125 C9.49117188 11.17945313 10.10734375 12.23390625 10.7421875 13.3203125 C11.15726562 14.20460938 11.57234375 15.08890625 12 16 C11.67 16.66 11.34 17.32 11 18 C10.01 17.67 9.02 17.34 8 17 C7.20986598 15.32096521 6.43024062 13.63426661 5.75390625 11.90625 C4.67642362 9.18183797 3.3325444 6.60715209 2 4 C1.33333333 2.66666667 0.66666667 1.33333333 0 0 Z " fill="#A71419" transform="translate(329,345)"/>
<path d="M0 0 C4.14032846 1.54385129 7.93553053 3.51028938 11.8125 5.625 C12.40998047 5.94984375 13.00746094 6.2746875 13.62304688 6.609375 C15.08337135 7.40379151 16.54187491 8.20155376 18 9 C18 9.33 18 9.66 18 10 C15.36 10 12.72 10 10 10 C9.67 8.68 9.34 7.36 9 6 C6.69 5.34 4.38 4.68 2 4 C2 3.34 2 2.68 2 2 C1.34 2 0.68 2 0 2 C0 1.34 0 0.68 0 0 Z " fill="#AA121A" transform="translate(146,251)"/>
<path d="M0 0 C0.33 0 0.66 0 1 0 C1.91022408 6.14401252 2.16643541 12.23528664 2.25 18.4375 C2.27126953 19.24300293 2.29253906 20.04850586 2.31445312 20.87841797 C2.328125 23.18359375 2.328125 23.18359375 2 27 C1.01 27.66 0.02 28.32 -1 29 C-0.83757812 28.45859375 -0.67515625 27.9171875 -0.5078125 27.359375 C0.79163759 21.32192995 0.32958466 14.64489538 -0.5625 8.5625 C-0.96207302 5.308834 -0.87850279 3.12356547 0 0 Z " fill="#CF0507" transform="translate(342,374)"/>
<path d="M0 0 C3.92491136 4.52874388 7.37459686 9.60598991 10 15 C9.67 15.66 9.34 16.32 9 17 C5.125 13.25 5.125 13.25 4 11 C3.01 10.67 2.02 10.34 1 10 C0.67 6.7 0.34 3.4 0 0 Z " fill="#AF161A" transform="translate(85,188)"/>
<path d="M0 0 C3.31325168 0.40160626 5.72934397 1.31476064 8.5625 3 C11.24098894 4.55839357 13.01250213 5.52200034 16 6 C16 6.66 16 7.32 16 8 C16.66 8.33 17.32 8.66 18 9 C15.08517222 9.80967438 13.53886783 10.21845993 10.6875 9.0625 C10.130625 8.711875 9.57375 8.36125 9 8 C9 7.01 9 6.02 9 5 C8.2575 4.71125 7.515 4.4225 6.75 4.125 C4.43260203 3.17697356 2.22082885 2.15154089 0 1 C0 0.67 0 0.34 0 0 Z " fill="#F5B112" transform="translate(341,54)"/>
<path d="M0 0 C1.32 0.33 2.64 0.66 4 1 C-7.33712984 8.66742597 -7.33712984 8.66742597 -14 10 C-14 9.34 -14 8.68 -14 8 C-12.5459375 7.5978125 -12.5459375 7.5978125 -11.0625 7.1875 C-9.5465625 6.5996875 -9.5465625 6.5996875 -8 6 C-7.67 5.01 -7.34 4.02 -7 3 C-6.030625 2.87625 -5.06125 2.7525 -4.0625 2.625 C-2.5465625 2.315625 -2.5465625 2.315625 -1 2 C-0.67 1.34 -0.34 0.68 0 0 Z " fill="#AF1016" transform="translate(311,453)"/>
<path d="M0 0 C2.5934408 1.16704836 3.06218894 2.37430012 4.203125 4.94140625 C4.53828125 5.67488281 4.8734375 6.40835937 5.21875 7.1640625 C5.46109375 7.72996094 5.7034375 8.29585938 5.953125 8.87890625 C2.17402022 8.87890625 1.49206399 7.88186663 -1.234375 5.37890625 C-1.94980469 4.72921875 -2.66523437 4.07953125 -3.40234375 3.41015625 C-3.94503906 2.90484375 -4.48773438 2.39953125 -5.046875 1.87890625 C-2.046875 -0.12109375 -2.046875 -0.12109375 0 0 Z " fill="#B60F13" transform="translate(112.046875,417.12109375)"/>
<path d="M0 0 C4.72887486 5.8903529 8.38490825 13.41386842 9 21 C6.1289248 19.5644624 5.77544554 17.65863801 4.5 14.75 C4.0771875 13.79609375 3.654375 12.8421875 3.21875 11.859375 C2.8165625 10.91578125 2.414375 9.9721875 2 9 C1.6184375 8.13890625 1.236875 7.2778125 0.84375 6.390625 C0 4 0 4 0 0 Z " fill="#E6B235" transform="translate(447,156)"/>
<path d="M0 0 C2.8125 -0.3125 2.8125 -0.3125 6 0 C7.75 2.4375 7.75 2.4375 9 5 C9.66 5.33 10.32 5.66 11 6 C11 6.66 11 7.32 11 8 C6.60357652 7.4975516 4.2051018 6.02704059 1 3 C0.67 2.01 0.34 1.02 0 0 Z " fill="#EAB123" transform="translate(366,259)"/>
<path d="M0 0 C0.99 0.33 1.98 0.66 3 1 C3 8.26 3 15.52 3 23 C0.91163328 18.82326657 0.6304381 16.34788582 0.375 11.75 C0.30023438 10.48671875 0.22546875 9.2234375 0.1484375 7.921875 C0.07496094 6.47554687 0.07496094 6.47554687 0 5 C-0.99 4.67 -1.98 4.34 -3 4 C-2.01 2.68 -1.02 1.36 0 0 Z " fill="#C11217" transform="translate(68,129)"/>
<path d="M0 0 C6.57815438 3.04644035 12.36986818 6.42355207 18 11 C17.01 11.495 17.01 11.495 16 12 C13 11 13 11 11.3125 9.125 C8.58522458 6.61885502 6.2217601 5.89741658 2.70703125 4.90625 C1 4 1 4 0.26171875 1.90625 C0.17535156 1.2771875 0.08898437 0.648125 0 0 Z " fill="#A71C22" transform="translate(296,319)"/>
<path d="M0 0 C4.71370756 0.64985095 8.57686444 2.51561392 12.8125 4.5625 C13.50537109 4.89185547 14.19824219 5.22121094 14.91210938 5.56054688 C16.61044948 6.36872251 18.30555769 7.18368377 20 8 C15.189624 9.60345867 11.45041224 7.05041651 7 5 C4.60435327 3.74292036 2.31273824 2.40775371 0 1 C0 0.67 0 0.34 0 0 Z " fill="#A92127" transform="translate(262,303)"/>
<path d="M0 0 C5.63098876 3.00064027 10.88084541 6.18786361 16 10 C14 11 14 11 10.875 10.0625 C9.451875 9.5365625 9.451875 9.5365625 8 9 C8 8.01 8 7.02 8 6 C7.401875 5.855625 6.80375 5.71125 6.1875 5.5625 C4.43849596 5.1127561 2.71322977 4.57107659 1 4 C0.3125 1.9375 0.3125 1.9375 0 0 Z " fill="#B31216" transform="translate(128,239)"/>
<path d="M0 0 C3.09998746 0.33214151 4.0545012 1.0545012 6.3125 3.3125 C8 6 8 6 7.75 8.3125 C7.5025 8.869375 7.255 9.42625 7 10 C5.35 9.67 3.7 9.34 2 9 C2 6.69 2 4.38 2 2 C1.34 2 0.68 2 0 2 C0 1.34 0 0.68 0 0 Z " fill="#EDB327" transform="translate(416,111)"/>
<path d="M0 0 C1 3 1 3 0.109375 5.375 C-0.33921875 6.24125 -0.7878125 7.1075 -1.25 8 C-1.68828125 8.86625 -2.1265625 9.7325 -2.578125 10.625 C-3.87579238 12.79253233 -5.12777789 14.32601317 -7 16 C-6.34580901 10.93001981 -4.1453591 6.58009223 -2 2 C-1.34 2 -0.68 2 0 2 C0 1.34 0 0.68 0 0 Z " fill="#A61419" transform="translate(340,420)"/>
<path d="M0 0 C1.9375 0.375 1.9375 0.375 4 1 C4.66666667 2.33333333 5.33333333 3.66666667 6 5 C8.05000871 5.80528889 8.05000871 5.80528889 10 6 C10.66 8.31 11.32 10.62 12 13 C7.07091854 9.12207712 3.4576289 5.23883167 0 0 Z " fill="#A8141B" transform="translate(79,390)"/>
<path d="M0 0 C1.98 0 3.96 0 6 0 C6 0.66 6 1.32 6 2 C7.65 2.33 9.3 2.66 11 3 C11 3.99 11 4.98 11 6 C11.99 6.33 12.98 6.66 14 7 C12.35 6.67 10.7 6.34 9 6 C9 5.34 9 4.68 9 4 C8.071875 4.0825 7.14375 4.165 6.1875 4.25 C3 4 3 4 1.125 2 C0.75375 1.34 0.3825 0.68 0 0 Z " fill="#EEB01E" transform="translate(181,169)"/>
<path d="M0 0 C0 0.66 0 1.32 0 2 C-3 4 -3 4 -6.25 4.875 C-9.27356982 5.78207095 -11.19065427 6.59468766 -13.8125 8.1875 C-15.3903125 9.0846875 -15.3903125 9.0846875 -17 10 C-17.66 9.67 -18.32 9.34 -19 9 C-17.10673459 7.87068379 -15.2102736 6.74672384 -13.3125 5.625 C-12.25675781 4.99851562 -11.20101562 4.37203125 -10.11328125 3.7265625 C-3.39366516 0 -3.39366516 0 0 0 Z " fill="#E6B044" transform="translate(204,39)"/>
<path d="M0 0 C5.06998019 0.65419099 9.41990777 2.8546409 14 5 C10.02903122 6.32365626 7.93674465 5.24318252 4 4 C2.66869885 3.65864073 1.33641852 3.32074044 0 3 C0 2.01 0 1.02 0 0 Z " fill="#AF1D24" transform="translate(199,277)"/>
<path d="M0 0 C4.94515667 2.62711448 8.87775489 6.26645294 13 10 C11 11 11 11 7.5 9.875 C4 8 4 8 2.6875 5.375 C2.460625 4.59125 2.23375 3.8075 2 3 C1.34 2.67 0.68 2.34 0 2 C0 1.34 0 0.68 0 0 Z " fill="#E7AF35" transform="translate(386,80)"/>
<path d="M0 0 C2.78388975 1.70625501 3.85384206 2.47626739 4.75 5.6875 C4.8325 6.450625 4.915 7.21375 5 8 C4.01 8.66 3.02 9.32 2 10 C2 9.34 2 8.68 2 8 C1.01 7.67 0.02 7.34 -1 7 C-0.67 4.69 -0.34 2.38 0 0 Z " fill="#C20A0E" transform="translate(325,340)"/>
<path d="M0 0 C0.33 0 0.66 0 1 0 C1.42743816 5.55669614 -0.11674357 9.87715219 -2 15 C-2.33 15.99 -2.66 16.98 -3 18 C-3.66 18 -4.32 18 -5 18 C-4.38388165 13.68068613 -3.35761422 9.74791225 -1.9375 5.625 C-1.57527344 4.56539062 -1.21304688 3.50578125 -0.83984375 2.4140625 C-0.56269531 1.61742187 -0.28554688 0.82078125 0 0 Z " fill="#AC1820" transform="translate(44,170)"/>
<path d="M0 0 C0.6484375 1.74609375 0.6484375 1.74609375 1 4 C0.0390625 6.03515625 0.0390625 6.03515625 -1.375 8.0625 C-3.03164999 10.47343477 -4.06272226 12.18816679 -5 15 C-5.66 15 -6.32 15 -7 15 C-5.34292168 9.35086937 -3.52237988 4.73699363 0 0 Z " fill="#E2B941" transform="translate(164,69)"/>
<path d="M0 0 C5.19644079 1.59890486 10.06612142 3.74138003 15 6 C15 6.33 15 6.66 15 7 C10.12335991 7.34833144 7.22949995 6.41685712 3 4 C3 3.34 3 2.68 3 2 C2.01 2 1.02 2 0 2 C0 1.34 0 0.68 0 0 Z " fill="#A4181C" transform="translate(164,261)"/>
<path d="M0 0 C3.59476701 3.49205938 6.92026191 7.04033675 10 11 C10 11.66 10 12.32 10 13 C6.11776713 11.52742891 5.02428918 9.52050292 3 6 C2.01 5.34 1.02 4.68 0 4 C0 2.68 0 1.36 0 0 Z " fill="#AF171A" transform="translate(95,205)"/>
<path d="M0 0 C0.99 0 1.98 0 3 0 C3 0.66 3 1.32 3 2 C3.969375 1.95875 4.93875 1.9175 5.9375 1.875 C10.44889724 1.85651067 14.64837652 2.89482578 19 4 C19 4.33 19 4.66 19 5 C11.25 5.125 11.25 5.125 9 4 C7.46331135 3.77532169 5.92031946 3.59203195 4.375 3.4375 C3.55773437 3.35371094 2.74046875 3.26992188 1.8984375 3.18359375 C1.27195313 3.12300781 0.64546875 3.06242187 0 3 C0 2.01 0 1.02 0 0 Z " fill="#D2171B" transform="translate(220,466)"/>
<path d="M0 0 C3.17755309 3.46642155 4.45964644 7.38898294 5 12 C4.546875 14.25 4.546875 14.25 4 16 C1.37124595 10.62819824 0.3916035 5.95507399 0 0 Z " fill="#AD2023" transform="translate(340,362)"/>
<path d="M0 0 C1.29608947 0.93137592 2.58671632 1.8703566 3.875 2.8125 C4.59429687 3.33457031 5.31359375 3.85664063 6.0546875 4.39453125 C8 6 8 6 10 9 C8.35 8.67 6.7 8.34 5 8 C5 7.34 5 6.68 5 6 C2.525 5.01 2.525 5.01 0 4 C0 2.68 0 1.36 0 0 Z " fill="#A00D16" transform="translate(315,331)"/>
<path d="M0 0 C0.99 0.33 1.98 0.66 3 1 C0.46636932 5.22271781 -1.56620325 7.78310162 -6 10 C-4.79157144 5.56909529 -3.48331435 3.01887244 0 0 Z " fill="#BB1921" transform="translate(59,142)"/>
<path d="M0 0 C1.16585932 3.49757797 0.75860292 4.61568066 -0.3125 8.0625 C-0.57675781 8.94035156 -0.84101563 9.81820313 -1.11328125 10.72265625 C-2 13 -2 13 -4 15 C-4 9.70485259 -2.05041815 4.8331285 0 0 Z " fill="#F6B112" transform="translate(457,315)"/>
<path d="M0 0 C4.75207471 -0.43200679 7.78210698 1.01510917 12 3 C11.34 3.66 10.68 4.32 10 5 C7.87109375 4.86328125 7.87109375 4.86328125 5.4375 4.3125 C4.63183594 4.14363281 3.82617188 3.97476563 2.99609375 3.80078125 C2.00802734 3.40439453 2.00802734 3.40439453 1 3 C0.67 2.01 0.34 1.02 0 0 Z " fill="#F1B224" transform="translate(296,223)"/>
<path d="M0 0 C1.32 0 2.64 0 4 0 C4.33 0.66 4.66 1.32 5 2 C8.02934491 2.65772428 8.02934491 2.65772428 11 3 C11 3.99 11 4.98 11 6 C4.6 5.63076923 4.6 5.63076923 1.5625 2.4375 C1.046875 1.633125 0.53125 0.82875 0 0 Z " fill="#EBB320" transform="translate(226,193)"/>
<path d="M0 0 C1.40309836 3.18885991 0.90389952 4.25335581 -0.375 7.625 C-1.23999119 9.42152016 -2.10829439 11.21658879 -3 13 C-3.66 13 -4.32 13 -5 13 C-4.54554036 11.58208592 -4.08625056 10.16571954 -3.625 8.75 C-3.24214844 7.56664062 -3.24214844 7.56664062 -2.8515625 6.359375 C-2.04826333 4.13372042 -1.10288338 2.09068328 0 0 Z " fill="#A91E26" transform="translate(52,152)"/>
<path d="M0 0 C0.99 0 1.98 0 3 0 C3.2475 0.639375 3.495 1.27875 3.75 1.9375 C4.81562433 4.18741541 4.81562433 4.18741541 7.125 4.75 C7.74375 4.8325 8.3625 4.915 9 5 C9 6.32 9 7.64 9 9 C6.29561004 8.63594751 5.25593617 8.31857318 3.515625 6.15234375 C2.88914062 5.05599609 2.88914062 5.05599609 2.25 3.9375 C1.82203125 3.20402344 1.3940625 2.47054688 0.953125 1.71484375 C0.63859375 1.14894531 0.3240625 0.58304687 0 0 Z " fill="#B50B13" transform="translate(72,381)"/>
<path d="M0 0 C0.33 0 0.66 0 1 0 C1.04898437 0.92683594 1.09796875 1.85367187 1.1484375 2.80859375 C1.22320312 4.00613281 1.29796875 5.20367187 1.375 6.4375 C1.44460938 7.63246094 1.51421875 8.82742188 1.5859375 10.05859375 C1.72257812 11.02925781 1.85921875 11.99992187 2 13 C2.66 13.33 3.32 13.66 4 14 C3.67 14.66 3.34 15.32 3 16 C2.01 15.67 1.02 15.34 0 15 C0 10.05 0 5.1 0 0 Z " fill="#D3AE3B" transform="translate(428,361)"/>
<path d="M0 0 C0.66 0 1.32 0 2 0 C2.33 0.66 2.66 1.32 3 2 C3.99 2.33 4.98 2.66 6 3 C6.73046875 4.84765625 6.73046875 4.84765625 7.1875 7.0625 C7.34605469 7.79597656 7.50460937 8.52945312 7.66796875 9.28515625 C7.83232422 10.13400391 7.83232422 10.13400391 8 11 C4.31993178 7.61831569 2.0214155 4.57478244 0 0 Z " fill="#E5B530" transform="translate(400,293)"/>
<path d="M0 0 C1.875 0.125 1.875 0.125 4 1 C5.25 4.0625 5.25 4.0625 6 7 C2.17902761 6.46930939 -0.06171403 5.50298434 -3 3 C-2.01 2.67 -1.02 2.34 0 2 C0 1.34 0 0.68 0 0 Z " fill="#F5B20A" transform="translate(220,186)"/>
<path d="M0 0 C0.66 0 1.32 0 2 0 C4.74375671 2.95481492 5 3.77471908 5 8 C4.01 8 3.02 8 2 8 C0.23537317 4.91190305 0 3.76687864 0 0 Z " fill="#F7B211" transform="translate(442,152)"/>
<path d="M0 0 C0.66 0.33 1.32 0.66 2 1 C0.71372289 2.17260611 -0.57919783 3.3379283 -1.875 4.5 C-2.59429687 5.1496875 -3.31359375 5.799375 -4.0546875 6.46875 C-6 8 -6 8 -8 8 C-8 7.01 -8 6.02 -8 5 C-7.34 5 -6.68 5 -6 5 C-6 4.34 -6 3.68 -6 3 C-5.195625 2.690625 -4.39125 2.38125 -3.5625 2.0625 C-1.10919595 1.23664655 -1.10919595 1.23664655 0 0 Z " fill="#A71416" transform="translate(323,445)"/>
<path d="M0 0 C0.99 0.495 0.99 0.495 2 1 C2 1.66 2 2.32 2 3 C4.97 3.495 4.97 3.495 8 4 C8 4.66 8 5.32 8 6 C4.98968256 6.93423645 4.13349732 7.04449911 1 6 C0.67 4.02 0.34 2.04 0 0 Z " fill="#CC080A" transform="translate(307,327)"/>
<path d="M0 0 C3.98381075 2.16264012 6.88983545 4.71211176 10 8 C8.68 8 7.36 8 6 8 C6 7.34 6 6.68 6 6 C5.195625 5.7525 4.39125 5.505 3.5625 5.25 C1 4 1 4 0.1875 1.875 C0.125625 1.25625 0.06375 0.6375 0 0 Z " fill="#AA191C" transform="translate(118,231)"/>
<path d="M0 0 C0.33 0 0.66 0 1 0 C1 3.3 1 6.6 1 10 C0.34 10 -0.32 10 -1 10 C-1.33 11.32 -1.66 12.64 -2 14 C-3.49341969 11.01316063 -2.40648676 9.04839022 -1.5625 5.875 C-1.27503906 4.77929688 -0.98757812 3.68359375 -0.69140625 2.5546875 C-0.46324219 1.71164063 -0.23507813 0.86859375 0 0 Z " fill="#B31E22" transform="translate(36,196)"/>
<path d="M0 0 C0.33 0 0.66 0 1 0 C2.905247 5.10334017 4.42589023 9.46342706 4 15 C1.1496974 11.79054398 0.56548301 9.50011452 0.3125 5.25 C0.24675781 4.26515625 0.18101562 3.2803125 0.11328125 2.265625 C0.07589844 1.51796875 0.03851563 0.7703125 0 0 Z " fill="#F5B525" transform="translate(155,123)"/>
<path d="M0 0 C4.56454251 0.54339792 7.9728176 1.79463821 12 4 C12 4.66 12 5.32 12 6 C7.76570244 4.68938409 3.92592596 3.05643741 0 1 C0 0.67 0 0.34 0 0 Z " fill="#A8161A" transform="translate(150,447)"/>
<path d="M0 0 C1.65 0 3.3 0 5 0 C5 0.66 5 1.32 5 2 C5.66 2 6.32 2 7 2 C7 2.66 7 3.32 7 4 C7.99 4.33 8.98 4.66 10 5 C7 6 7 6 5 5.3125 C2.73368379 3.82522999 1.49487177 2.24230766 0 0 Z " fill="#B41117" transform="translate(141,441)"/>
<path d="M0 0 C3.45281166 1.15093722 4.38082163 2.3205993 6.6875 5.0625 C7.31011719 5.79597656 7.93273437 6.52945313 8.57421875 7.28515625 C9.04472656 7.85105469 9.51523437 8.41695312 10 9 C9.01 9.33 8.02 9.66 7 10 C6.34 9.01 5.68 8.02 5 7 C4.01 6.67 3.02 6.34 2 6 C2 4.68 2 3.36 2 2 C1.34 2 0.68 2 0 2 C0 1.34 0 0.68 0 0 Z " fill="#EFB316" transform="translate(396,90)"/>
<path d="M0 0 C3.55780196 0.60990891 6.6828589 1.5783681 10 3 C6.25 5 6.25 5 4 5 C4 4.34 4 3.68 4 3 C2.35 2.67 0.7 2.34 -1 2 C-0.67 1.34 -0.34 0.68 0 0 Z " fill="#F6B215" transform="translate(320,45)"/>
<path d="M0 0 C1.43931117 0.45261358 2.87638999 0.91232979 4.3125 1.375 C5.11300781 1.63023437 5.91351563 1.88546875 6.73828125 2.1484375 C9 3 9 3 12 5 C8.44953334 5 6.89760758 4.75904303 3.75 3.5 C3.04359375 3.2215625 2.3371875 2.943125 1.609375 2.65625 C1.07828125 2.4396875 0.5471875 2.223125 0 2 C0 1.34 0 0.68 0 0 Z " fill="#C70E16" transform="translate(187,273)"/>
<path d="M0 0 C0.33 0.66 0.66 1.32 1 2 C0.67 2.66 0.34 3.32 0 4 C1.32 4.33 2.64 4.66 4 5 C4 5.66 4 6.32 4 7 C0.66666667 5.66666667 -2.66666667 4.33333333 -6 3 C-4 2 -2 1 0 0 Z " fill="#F6B113" transform="translate(251,200)"/>
<path d="M0 0 C-1.625 2 -1.625 2 -4 4 C-7.25 4.25 -7.25 4.25 -10 4 C-7.6604297 0.49064455 -4.21379901 -2.1068995 0 0 Z " fill="#EEAF2B" transform="translate(191,48)"/>
<path d="M0 0 C7.38461538 -0.36923077 7.38461538 -0.36923077 10.5 1.5 C10.995 1.995 11.49 2.49 12 3 C10.56163249 2.88541307 9.12429034 2.75790884 7.6875 2.625 C6.88699219 2.55539062 6.08648437 2.48578125 5.26171875 2.4140625 C3 2 3 2 0 0 Z " fill="#A61315" transform="translate(172,457)"/>
<path d="M0 0 C0.66 0 1.32 0 2 0 C1.67 2.31 1.34 4.62 1 7 C0.01 6.67 -0.98 6.34 -2 6 C-1.49396008 3.83125748 -1.00016187 2.00032373 0 0 Z " fill="#CD0909" transform="translate(339,415)"/>
<path d="M0 0 C3.42298577 1.14099526 4.14758766 2.00085621 6 5 C6 5.99 6 6.98 6 8 C5.01 7.67 4.02 7.34 3 7 C2.3125 4.9375 2.3125 4.9375 2 3 C1.34 3 0.68 3 0 3 C0 2.01 0 1.02 0 0 Z " fill="#CC0506" transform="translate(81,388)"/>
<path d="M0 0 C0.33 0.99 0.66 1.98 1 3 C2.32 2.67 3.64 2.34 5 2 C5 2.66 5 3.32 5 4 C4.34 4 3.68 4 3 4 C3.33 5.65 3.66 7.3 4 9 C1.24338912 6.51015791 -0.60746455 4.79450934 -1 1 C-0.67 0.67 -0.34 0.34 0 0 Z " fill="#EBAF25" transform="translate(391,278)"/>
<path d="M0 0 C2.31 0.33 4.62 0.66 7 1 C6.67 1.99 6.34 2.98 6 4 C5.401875 3.835 4.80375 3.67 4.1875 3.5 C1.88655664 2.8885876 1.88655664 2.8885876 -1 3 C-0.67 2.01 -0.34 1.02 0 0 Z " fill="#C50609" transform="translate(139,249)"/>
<path d="M0 0 C2.96175123 0.61277612 4.38058783 1.25372522 7 3 C5.02 3.66 3.04 4.32 1 5 C0.34 4.34 -0.32 3.68 -1 3 C-0.67 2.01 -0.34 1.02 0 0 Z " fill="#CF0408" transform="translate(129,243)"/>
<path d="M0 0 C0.33 0 0.66 0 1 0 C1 1.65 1 3.3 1 5 C-0.65 5.66 -2.3 6.32 -4 7 C-3.67 5.35 -3.34 3.7 -3 2 C-2.01 2 -1.02 2 0 2 C0 1.34 0 0.68 0 0 Z " fill="#C3101D" transform="translate(49,163)"/>
<path d="M0 0 C0.66 0 1.32 0 2 0 C2 1.65 2 3.3 2 5 C1.01 5 0.02 5 -1 5 C-3.18777466 6.9375006 -3.18777466 6.9375006 -5 9 C-3.7580393 5.56072421 -2.44259716 2.74792181 0 0 Z " fill="#A23041" transform="translate(68,126)"/>
<path d="M0 0 C0.99 0 1.98 0 3 0 C3.33 0.66 3.66 1.32 4 2 C5.97522846 3.04808041 7.97481509 4.0520411 10 5 C9.01 5.495 9.01 5.495 8 6 C6.0546875 5.22265625 6.0546875 5.22265625 3.875 4.0625 C3.15054687 3.68222656 2.42609375 3.30195313 1.6796875 2.91015625 C1.12539063 2.60980469 0.57109375 2.30945313 0 2 C0 1.34 0 0.68 0 0 Z " fill="#E9AB3E" transform="translate(327,237)"/>
<path d="M0 0 C0.33 0 0.66 0 1 0 C1 2.31 1 4.62 1 7 C-0.32 7 -1.64 7 -3 7 C-2.67 5.35 -2.34 3.7 -2 2 C-1.34 2 -0.68 2 0 2 C0 1.34 0 0.68 0 0 Z " fill="#F8B00D" transform="translate(462,201)"/>
<path d="M0 0 C0.33 0.66 0.66 1.32 1 2 C1.99 2 2.98 2 4 2 C4 4.31 4 6.62 4 9 C1.49701566 6.06171403 0.53069061 3.82097239 0 0 Z " fill="#A7151A" transform="translate(47,336)"/>
<path d="M0 0 C1.0326802 2.78823655 1.04509293 3.8677274 0.0625 6.75 C-0.288125 7.4925 -0.63875 8.235 -1 9 C-1.33 9 -1.66 9 -2 9 C-2.125 5.625 -2.125 5.625 -2 2 C-1.34 1.34 -0.68 0.68 0 0 Z " fill="#F3B119" transform="translate(460,306)"/>
<path d="M0 0 C5.41538462 -0.36923077 5.41538462 -0.36923077 8.375 1.5 C8.91125 1.995 9.4475 2.49 10 3 C8.5199159 2.88637738 7.04089926 2.75877092 5.5625 2.625 C4.73878906 2.55539062 3.91507813 2.48578125 3.06640625 2.4140625 C2.38449219 2.27742188 1.70257813 2.14078125 1 2 C0.67 1.34 0.34 0.68 0 0 Z " fill="#B3141E" transform="translate(252,300)"/>
<path d="M0 0 C2.31 0.33 4.62 0.66 7 1 C7.33 2.32 7.66 3.64 8 5 C4.62496331 3.8141763 2.35277269 2.72426311 0 0 Z " fill="#C00C0E" transform="translate(110,228)"/>
<path d="M0 0 C2.5 2.3125 2.5 2.3125 5 5 C5 5.99 5 6.98 5 8 C2.5 6.25 2.5 6.25 0 4 C0 2.68 0 1.36 0 0 Z " fill="#E7B139" transform="translate(424,119)"/>
<path d="M0 0 C1.11375 0.598125 2.2275 1.19625 3.375 1.8125 C4.00148438 2.14894531 4.62796875 2.48539062 5.2734375 2.83203125 C7 4 7 4 9 7 C4.71193127 6.52354792 2.73352513 5.34097516 0 2 C0 1.34 0 0.68 0 0 Z " fill="#E1AC3E" transform="translate(377,73)"/>
</svg>
